Moderustic-Bold.ufo
<glyph name="exclam" format="2">
  <advance width="255"/>
  <unicode hex="0021"/>
  <outline>
    <contour>
      <point x="58" y="249" type="line"/>
      <point x="197" y="249" type="line"/>
      <point x="213" y="750" type="line"/>
      <point x="42" y="750" type="line"/>
    </contour>
    <contour>
      <point x="127" y="-20" type="curve" smooth="yes"/>
      <point x="173.952" y="-20"/>
      <point x="209.856" y="17.745"/>
      <point x="209.856" y="63.776" type="curve" smooth="yes"/>
      <point x="209.856" y="109.807"/>
      <point x="173.952" y="145.712"/>
      <point x="127" y="145.712" type="curve" smooth="yes"/>
      <point x="79.128" y="145.712"/>
      <point x="44.144" y="109.807"/>
      <point x="44.144" y="63.776" type="curve" smooth="yes"/>
      <point x="44.144" y="17.745"/>
      <point x="79.128" y="-20"/>
    </contour>
  </outline>
</glyph>
<glyph name="ampersand" format="2">
  <advance width="664"/>
  <unicode hex="0026"/>
  <outline>
    <contour>
      <point x="303.815" y="422.464" type="line"/>
      <point x="254.776" y="462.686"/>
      <point x="233" y="497.327"/>
      <point x="233" y="532.257" type="curve" smooth="yes"/>
      <point x="233" y="576.713"/>
      <point x="253.366" y="600"/>
      <point x="290.505" y="600" type="curve" smooth="yes"/>
      <point x="326.446" y="600"/>
      <point x="354" y="577.923"/>
      <point x="354" y="537.974" type="curve" smooth="yes"/>
      <point x="354" y="465.436"/>
      <point x="285.661" y="429.692"/>
      <point x="226" y="395" type="curve"/>
    </contour>
    <contour>
      <point x="494" y="0" type="line"/>
      <point x="667" y="0" type="line"/>
      <point x="353.307" y="380.447" type="line"/>
      <point x="332.956" y="350.027" type="line"/>
      <point x="455.043" y="402.462"/>
      <point x="500" y="459.368"/>
      <point x="500" y="541" type="curve" smooth="yes"/>
      <point x="500" y="653"/>
      <point x="417" y="720"/>
      <point x="292" y="720" type="curve" smooth="yes"/>
      <point x="171" y="720"/>
      <point x="87" y="657"/>
      <point x="87" y="557" type="curve" smooth="yes"/>
      <point x="87" y="493"/>
      <point x="121" y="424"/>
      <point x="175" y="377" type="curve"/>
      <point x="83" y="343"/>
      <point x="27" y="274"/>
      <point x="27" y="182" type="curve" smooth="yes"/>
      <point x="27" y="59"/>
      <point x="126" y="-20"/>
      <point x="275" y="-20" type="curve" smooth="yes"/>
      <point x="468" y="-20"/>
      <point x="579" y="114"/>
      <point x="642" y="206" type="curve"/>
      <point x="560.807" y="287.193" type="line"/>
      <point x="478.554" y="157.753"/>
      <point x="381.465" y="100"/>
      <point x="288.93" y="100" type="curve" smooth="yes"/>
      <point x="228.268" y="100"/>
      <point x="182" y="130.487"/>
      <point x="182" y="190.41" type="curve" smooth="yes"/>
      <point x="182" y="236.667"/>
      <point x="214" y="287.128"/>
      <point x="246" y="305" type="curve"/>
    </contour>
  </outline>
</glyph>
<glyph name="slash" format="2">
  <advance width="315"/>
  <unicode hex="002F"/>
  <outline>
    <contour>
      <point x="-42" y="0" type="line"/>
      <point x="-8" y="0" type="line"/>
      <point x="364" y="700" type="line"/>
      <point x="330" y="700" type="line"/>
    </contour>
  </outline>
</glyph>
<glyph name="zero" format="2">
  <advance width="627"/>
  <unicode hex="0030"/>
  <outline>
    <contour>
      <point x="315.991" y="-19" type="curve" smooth="yes"/>
      <point x="494.339" y="-19"/>
      <point x="587" y="104"/>
      <point x="587" y="350" type="curve" smooth="yes"/>
      <point x="587" y="595"/>
      <point x="495.335" y="720"/>
      <point x="319.976" y="720" type="curve" smooth="yes"/>
      <point x="138.639" y="720"/>
      <point x="40" y="590"/>
      <point x="40" y="348" type="curve" smooth="yes"/>
      <point x="40" y="111"/>
      <point x="134.654" y="-19"/>
    </contour>
    <contour>
      <point x="311.986" y="111" type="curve" smooth="yes"/>
      <point x="243.353" y="111"/>
      <point x="205" y="174"/>
      <point x="205" y="346" type="curve" smooth="yes"/>
      <point x="205" y="518"/>
      <point x="243.353" y="590"/>
      <point x="312.995" y="590" type="curve" smooth="yes"/>
      <point x="382.637" y="590"/>
      <point x="422" y="517"/>
      <point x="422" y="349" type="curve" smooth="yes"/>
      <point x="422" y="172"/>
      <point x="378.6" y="111"/>
    </contour>
  </outline>
</glyph>
<glyph name="four" format="2">
  <advance width="685"/>
  <unicode hex="0034"/>
  <outline>
    <contour>
      <point x="16" y="151" type="line"/>
      <point x="366" y="151" type="line"/>
      <point x="366" y="0" type="line"/>
      <point x="532" y="0" type="line"/>
      <point x="532" y="151" type="line"/>
      <point x="658" y="151" type="line"/>
      <point x="658" y="281" type="line"/>
      <point x="532" y="281" type="line"/>
      <point x="532" y="700" type="line"/>
      <point x="335" y="700" type="line"/>
      <point x="16" y="227" type="line"/>
    </contour>
    <contour>
      <point x="204" y="281" type="line"/>
      <point x="366" y="521" type="line"/>
      <point x="366" y="281" type="line"/>
    </contour>
  </outline>
</glyph>
<glyph name="seven" format="2">
  <advance width="565"/>
  <unicode hex="0037"/>
  <outline>
    <contour>
      <point x="97" y="0" type="line"/>
      <point x="280" y="0" type="line"/>
      <point x="560" y="600" type="line"/>
      <point x="560" y="700" type="line"/>
      <point x="34" y="700" type="line"/>
      <point x="34" y="570" type="line"/>
      <point x="363" y="570" type="line"/>
    </contour>
  </outline>
</glyph>
<glyph name="at" format="2">
  <advance width="885"/>
  <unicode hex="0040"/>
  <outline>
    <contour>
      <point x="534" y="-67" type="line"/>
      <point x="504.233" y="-73"/>
      <point x="467.953" y="-79"/>
      <point x="431.674" y="-79" type="curve" smooth="yes"/>
      <point x="265.163" y="-79"/>
      <point x="134" y="36.5"/>
      <point x="134" y="247.333" type="curve" smooth="yes"/>
      <point x="134" y="471"/>
      <point x="279.82" y="581"/>
      <point x="446.601" y="581" type="curve" smooth="yes"/>
      <point x="614.294" y="581"/>
      <point x="751" y="470.142"/>
      <point x="751" y="276.828" type="curve" smooth="yes"/>
      <point x="751" y="154.06"/>
      <point x="710.889" y="111"/>
      <point x="667.436" y="111" type="curve" smooth="yes"/>
      <point x="638.691" y="111"/>
      <point x="630" y="123.478"/>
      <point x="630" y="161.873" type="curve" smooth="yes"/>
      <point x="630" y="174.352" type="line"/>
      <point x="649" y="422" type="line"/>
      <point x="601.864" y="447"/>
      <point x="551.342" y="460"/>
      <point x="489.242" y="460" type="curve" smooth="yes"/>
      <point x="309.256" y="460"/>
      <point x="224" y="349"/>
      <point x="224" y="220" type="curve" smooth="yes"/>
      <point x="224" y="90"/>
      <point x="311.997" y="21"/>
      <point x="416.956" y="21" type="curve" smooth="yes"/>
      <point x="500.712" y="21"/>
      <point x="532.432" y="63"/>
      <point x="551" y="118" type="curve"/>
      <point x="548" y="59"/>
      <point x="598" y="23"/>
      <point x="668" y="23" type="curve" smooth="yes"/>
      <point x="793" y="23"/>
      <point x="841" y="136"/>
      <point x="841" y="282" type="curve" smooth="yes"/>
      <point x="841" y="507"/>
      <point x="680" y="661"/>
      <point x="448" y="661" type="curve" smooth="yes"/>
      <point x="216" y="661"/>
      <point x="44" y="507"/>
      <point x="44" y="244" type="curve" smooth="yes"/>
      <point x="44" y="-6"/>
      <point x="199" y="-159"/>
      <point x="423" y="-159" type="curve" smooth="yes"/>
      <point x="463" y="-159"/>
      <point x="499" y="-154"/>
      <point x="534" y="-147" type="curve"/>
    </contour>
    <contour>
      <point x="521" y="362" type="curve"/>
      <point x="518.17" y="333.167"/>
      <point x="512.459" y="292.807"/>
      <point x="509.678" y="265.891" type="curve" smooth="yes"/>
      <point x="497.363" y="146.721"/>
      <point x="478.1" y="115"/>
      <point x="421.928" y="115" type="curve" smooth="yes"/>
      <point x="375.41" y="115"/>
      <point x="364" y="144.664"/>
      <point x="364" y="209.555" type="curve" smooth="yes"/>
      <point x="364" y="310.599"/>
      <point x="403.573" y="369"/>
      <point x="462.493" y="369" type="curve" smooth="yes"/>
      <point x="486.237" y="369"/>
      <point x="501.186" y="366.118"/>
    </contour>
  </outline>
</glyph>
<glyph name="A" format="2">
  <advance width="655"/>
  <unicode hex="0041"/>
  <anchor x="328" y="719" name="top"/>
  <anchor x="328" y="-20" name="bottom"/>
  <anchor x="640" y="-2" name="ogonek"/>
  <anchor x="76" y="500" name="topgr"/>
  <outline>
    <contour>
      <point x="193" y="114" type="line" name="dv01"/>
      <point x="459" y="114" type="line"/>
      <point x="415" y="234" type="line" name="dv03"/>
      <point x="237" y="234" type="line" name="dv02"/>
    </contour>
    <contour>
      <point x="7" y="0" type="line"/>
      <point x="181" y="0" type="line"/>
      <point x="372" y="700" type="line"/>
      <point x="234" y="700" type="line"/>
    </contour>
    <contour>
      <point x="474" y="0" type="line"/>
      <point x="648" y="0" type="line"/>
      <point x="421" y="700" type="line"/>
      <point x="283" y="700" type="line"/>
    </contour>
  </outline>
</glyph>
<glyph name="D" format="2">
  <advance width="722"/>
  <unicode hex="0044"/>
  <anchor x="318" y="719" name="top"/>
  <anchor x="318" y="-20" name="bottom"/>
  <outline>
    <contour>
      <point x="223" y="130" type="line" name="sv01"/>
      <point x="223" y="570" type="line" name="sv02"/>
      <point x="319" y="570" type="line" smooth="yes"/>
      <point x="447" y="570"/>
      <point x="526" y="481"/>
      <point x="526" y="352" type="curve" smooth="yes"/>
      <point x="526" y="218"/>
      <point x="441" y="130"/>
      <point x="319" y="130" type="curve" smooth="yes"/>
    </contour>
    <contour>
      <point x="58" y="0" type="line" name="ab01"/>
      <point x="340" y="0" type="line" smooth="yes"/>
      <point x="551" y="0"/>
      <point x="694" y="141"/>
      <point x="694" y="350" type="curve" smooth="yes"/>
      <point x="694" y="558"/>
      <point x="550" y="700"/>
      <point x="340" y="700" type="curve" smooth="yes" name="at01"/>
      <point x="58" y="700" type="line"/>
    </contour>
  </outline>
</glyph>
<glyph name="E" format="2">
  <advance width="530"/>
  <unicode hex="0045"/>
  <anchor x="265" y="719" name="top"/>
  <anchor x="276" y="-20" name="bottom"/>
  <anchor x="488" y="-2" name="ogonek"/>
  <anchor x="-60" y="500" name="topgr"/>
  <outline>
    <contour>
      <point x="58" y="0" type="line"/>
      <point x="495" y="0" type="line" name="ab01"/>
      <point x="495" y="130" type="line" name="sv01"/>
      <point x="224" y="130" type="line"/>
      <point x="224" y="300" type="line" name="dv01"/>
      <point x="455" y="300" type="line"/>
      <point x="455" y="430" type="line"/>
      <point x="224" y="430" type="line" name="dv02"/>
      <point x="224" y="570" type="line" name="sv02"/>
      <point x="480" y="570" type="line"/>
      <point x="480" y="700" type="line" name="at01"/>
      <point x="58" y="700" type="line"/>
    </contour>
  </outline>
</glyph>
<glyph name="G" format="2">
  <advance width="776"/>
  <unicode hex="0047"/>
  <anchor x="383" y="719" name="top"/>
  <anchor x="383" y="-20" name="bottom"/>
  <outline>
    <contour>
      <point x="592" y="0" type="line"/>
      <point x="723" y="0" type="line"/>
      <point x="723" y="387" type="line" name="dv06"/>
      <point x="336" y="387" type="line" name="av02"/>
      <point x="336" y="256" type="line" name="av03"/>
      <point x="592" y="256" type="line" name="dv05"/>
    </contour>
    <contour>
      <point x="629" y="220" type="curve"/>
      <point x="591" y="312" type="line" name="dv07"/>
      <point x="591" y="178"/>
      <point x="496.24" y="111"/>
      <point x="387.515" y="111" type="curve" smooth="yes" name="dv02"/>
      <point x="273.803" y="111"/>
      <point x="196" y="184"/>
      <point x="196" y="354" type="curve" smooth="yes"/>
      <point x="196" y="524"/>
      <point x="273.796" y="589"/>
      <point x="387.499" y="589" type="curve" smooth="yes"/>
      <point x="464.298" y="589"/>
      <point x="529.128" y="559"/>
      <point x="578" y="501" type="curve"/>
      <point x="673" y="596" type="line"/>
      <point x="612" y="670"/>
      <point x="508" y="720"/>
      <point x="374" y="720" type="curve" smooth="yes"/>
      <point x="164" y="720"/>
      <point x="28" y="597"/>
      <point x="28" y="348" type="curve" smooth="yes"/>
      <point x="28" y="105"/>
      <point x="167" y="-20"/>
      <point x="341" y="-20" type="curve" smooth="yes" name="dv01"/>
      <point x="505" y="-20"/>
      <point x="625" y="90"/>
    </contour>
  </outline>
</glyph>
<glyph name="I" format="2">
  <advance width="326"/>
  <unicode hex="0049"/>
  <anchor x="163" y="719" name="top"/>
  <anchor x="163" y="-20" name="bottom"/>
  <anchor x="239" y="-3" name="ogonek"/>
  <anchor x="-33" y="500" name="topgr"/>
  <outline>
    <contour>
      <point x="80" y="0" type="line"/>
      <point x="246" y="0" type="line"/>
      <point x="246" y="700" type="line"/>
      <point x="80" y="700" type="line"/>
    </contour>
  </outline>
</glyph>
<glyph name="L" format="2">
  <advance width="524"/>
  <unicode hex="004C"/>
  <anchor x="151" y="719" name="top"/>
  <anchor x="277" y="-20" name="bottom"/>
  <anchor x="318" y="700" name="topright"/>
  <outline>
    <contour>
      <point x="58" y="0" type="line" name="ab01"/>
      <point x="511" y="0" type="line"/>
      <point x="511" y="130" type="line" name="sv01"/>
      <point x="224" y="130" type="line"/>
      <point x="224" y="700" type="line" name="at01"/>
      <point x="58" y="700" type="line"/>
    </contour>
  </outline>
</glyph>
<glyph name="P" format="2">
  <advance width="628"/>
  <unicode hex="0050"/>
  <anchor x="322" y="719" name="top"/>
  <anchor x="322" y="-20" name="bottom"/>
  <outline>
    <contour>
      <point x="68" y="0" type="line"/>
      <point x="234" y="0" type="line" name="ab01"/>
      <point x="234" y="216" type="line" name="dv01"/>
      <point x="334" y="216" type="line" smooth="yes"/>
      <point x="524" y="216"/>
      <point x="605" y="334"/>
      <point x="605" y="460" type="curve" smooth="yes"/>
      <point x="605" y="585"/>
      <point x="524" y="700"/>
      <point x="334" y="700" type="curve" smooth="yes" name="at01"/>
      <point x="68" y="700" type="line"/>
    </contour>
    <contour>
      <point x="234" y="347" type="line" name="dv02"/>
      <point x="234" y="570" type="line" name="sv01"/>
      <point x="299" y="570" type="line" smooth="yes"/>
      <point x="381" y="570"/>
      <point x="438" y="537"/>
      <point x="438" y="458" type="curve" smooth="yes"/>
      <point x="438" y="380"/>
      <point x="382" y="347"/>
      <point x="299" y="347" type="curve" smooth="yes"/>
    </contour>
  </outline>
</glyph>
<glyph name="Q" format="2">
  <advance width="775"/>
  <unicode hex="0051"/>
  <anchor x="388" y="719" name="top"/>
  <anchor x="388" y="-20" name="bottom"/>
  <anchor x="512" y="-1" name="ogonek"/>
  <outline>
    <contour>
      <point x="388.992" y="111" type="curve" smooth="yes" name="dv02"/>
      <point x="271.605" y="111"/>
      <point x="196" y="210"/>
      <point x="196" y="353" type="curve" smooth="yes"/>
      <point x="196" y="498"/>
      <point x="265.636" y="589"/>
      <point x="385.013" y="589" type="curve" smooth="yes" name="dv03"/>
      <point x="505.384" y="589"/>
      <point x="579" y="493"/>
      <point x="579" y="346" type="curve" smooth="yes" name="dv05"/>
      <point x="579" y="204"/>
      <point x="507.374" y="111"/>
    </contour>
    <contour>
      <point x="387" y="-20" type="curve" smooth="yes" name="dv01"/>
      <point x="611" y="-20"/>
      <point x="747" y="144"/>
      <point x="747" y="350" type="curve" smooth="yes" name="dv06"/>
      <point x="747" y="557"/>
      <point x="606" y="720"/>
      <point x="388" y="720" type="curve" smooth="yes" name="dv04"/>
      <point x="170" y="720"/>
      <point x="28" y="560"/>
      <point x="28" y="350" type="curve" smooth="yes"/>
      <point x="28" y="142"/>
      <point x="168" y="-20"/>
    </contour>
    <contour>
      <point x="330" y="-3" type="line" name="ab02"/>
      <point x="330" y="-197"/>
      <point x="393" y="-221"/>
      <point x="634" y="-221" type="curve"/>
      <point x="634" y="-91" type="line"/>
      <point x="493" y="-91"/>
      <point x="483" y="-84"/>
      <point x="483" y="-3" type="curve" name="ab01"/>
    </contour>
  </outline>
</glyph>
<glyph name="U" format="2">
  <advance width="675"/>
  <unicode hex="0055"/>
  <anchor x="338" y="719" name="top"/>
  <anchor x="338" y="-20" name="bottom"/>
  <anchor x="454" y="-1" name="ogonek"/>
  <outline>
    <contour>
      <point x="50" y="700" type="line" name="at01"/>
      <point x="50" y="262" type="line" smooth="yes"/>
      <point x="50" y="88"/>
      <point x="158.784" y="-20"/>
      <point x="335.946" y="-20" type="curve" smooth="yes" name="dv01"/>
      <point x="513.108" y="-20"/>
      <point x="625" y="89"/>
      <point x="625" y="262" type="curve" smooth="yes"/>
      <point x="625" y="700" type="line" name="at02"/>
      <point x="459" y="700" type="line"/>
      <point x="459" y="285" type="line" smooth="yes"/>
      <point x="459" y="168"/>
      <point x="418.682" y="110"/>
      <point x="338.045" y="110" type="curve" smooth="yes" name="dv02"/>
      <point x="256.318" y="110"/>
      <point x="216" y="168"/>
      <point x="216" y="285" type="curve" smooth="yes"/>
      <point x="216" y="700" type="line"/>
    </contour>
  </outline>
</glyph>
<glyph name="Y" format="2">
  <advance width="662"/>
  <unicode hex="0059"/>
  <anchor x="331" y="719" name="top"/>
  <anchor x="331" y="-20" name="bottom"/>
  <anchor x="-95" y="500" name="topgr"/>
  <outline>
    <contour>
      <point x="248" y="0" type="line" name="ab01"/>
      <point x="414" y="0" type="line"/>
      <point x="414" y="284" type="line" name="iv04"/>
      <point x="654" y="700" type="line" name="at01"/>
      <point x="466" y="700" type="line"/>
      <point x="334" y="442" type="line" name="iv05"/>
      <point x="199" y="700" type="line" name="at02"/>
      <point x="8" y="700" type="line"/>
      <point x="248" y="284" type="line" name="iv01"/>
    </contour>
  </outline>
</glyph>
<glyph name="p" format="2">
  <advance width="632"/>
  <unicode hex="0070"/>
  <anchor x="369" y="-20" name="bottom"/>
  <anchor x="350" y="520" name="top"/>
  <outline>
    <contour>
      <point x="61" y="-200" type="line" name="av01"/>
      <point x="226" y="-200" type="line"/>
      <point x="226" y="500" type="line" name="av02"/>
      <point x="61" y="500" type="line"/>
    </contour>
    <contour>
      <point x="372" y="-20" type="curve" smooth="yes" name="dv01"/>
      <point x="509" y="-20"/>
      <point x="593" y="99"/>
      <point x="593" y="255" type="curve" smooth="yes"/>
      <point x="593" y="411"/>
      <point x="518" y="520"/>
      <point x="379" y="520" type="curve" smooth="yes" name="at01"/>
      <point x="261" y="520"/>
      <point x="191" y="421"/>
      <point x="191" y="255" type="curve" smooth="yes"/>
      <point x="191" y="90"/>
      <point x="263" y="-20"/>
    </contour>
    <contour>
      <point x="323" y="106" type="curve" smooth="yes" name="dv02"/>
      <point x="264" y="106"/>
      <point x="226" y="166"/>
      <point x="226" y="257" type="curve" smooth="yes"/>
      <point x="226" y="337"/>
      <point x="265" y="393"/>
      <point x="322" y="393" type="curve" smooth="yes" name="sv01"/>
      <point x="390" y="393"/>
      <point x="428" y="341"/>
      <point x="428" y="256" type="curve" smooth="yes"/>
      <point x="428" y="164"/>
      <point x="388" y="106"/>
    </contour>
  </outline>
</glyph>
<glyph name="u" format="2">
  <advance width="580"/>
  <unicode hex="0075"/>
  <anchor x="397" y="-3" name="ogonek"/>
  <anchor x="290" y="520" name="top"/>
  <anchor x="290" y="-20" name="bottom"/>
  <outline>
    <contour>
      <point x="47" y="500" type="line" name="av01"/>
      <point x="47" y="185" type="line" smooth="yes"/>
      <point x="47" y="62"/>
      <point x="144" y="-20"/>
      <point x="291" y="-20" type="curve" smooth="yes" name="dv01"/>
      <point x="439" y="-20"/>
      <point x="534" y="65"/>
      <point x="534" y="185" type="curve" smooth="yes"/>
      <point x="534" y="500" type="line" name="av02"/>
      <point x="369" y="500" type="line"/>
      <point x="369" y="228" type="line" smooth="yes"/>
      <point x="369" y="137"/>
      <point x="345" y="104"/>
      <point x="291" y="104" type="curve" smooth="yes" name="dv02"/>
      <point x="237" y="104"/>
      <point x="212" y="138"/>
      <point x="212" y="228" type="curve" smooth="yes"/>
      <point x="212" y="500" type="line"/>
    </contour>
  </outline>
</glyph>
<glyph name="v" format="2">
  <advance width="530"/>
  <unicode hex="0076"/>
  <anchor x="265" y="520" name="top"/>
  <anchor x="265" y="-20" name="bottom"/>
  <outline>
    <contour>
      <point x="187" y="0" type="line"/>
      <point x="343" y="0" type="line"/>
      <point x="535" y="500" type="line"/>
      <point x="359" y="500" type="line"/>
      <point x="265" y="215" type="line"/>
      <point x="171" y="500" type="line"/>
      <point x="-5" y="500" type="line"/>
    </contour>
  </outline>
</glyph>
<glyph name="degree" format="2">
  <advance width="483"/>
  <unicode hex="00B0"/>
  <outline>
    <contour>
      <point x="57" y="556" type="curve" smooth="yes"/>
      <point x="57" y="458"/>
      <point x="140" y="390"/>
      <point x="248" y="390" type="curve" smooth="yes"/>
      <point x="355" y="390"/>
      <point x="428" y="458"/>
      <point x="428" y="556" type="curve" smooth="yes"/>
      <point x="428" y="653"/>
      <point x="357" y="719"/>
      <point x="248" y="719" type="curve" smooth="yes"/>
      <point x="139" y="719"/>
      <point x="57" y="653"/>
    </contour>
    <contour>
      <point x="244" y="461" type="curve" smooth="yes"/>
      <point x="193" y="461"/>
      <point x="154" y="488"/>
      <point x="154" y="555" type="curve" smooth="yes"/>
      <point x="154" y="622"/>
      <point x="194" y="648"/>
      <point x="244" y="648" type="curve" smooth="yes"/>
      <point x="294" y="648"/>
      <point x="332" y="622"/>
      <point x="332" y="555" type="curve" smooth="yes"/>
      <point x="332" y="488"/>
      <point x="295" y="461"/>
    </contour>
  </outline>
</glyph>
<glyph name="ordmasculine" format="2">
  <advance width="516"/>
  <unicode hex="00BA"/>
  <outline>
    <contour>
      <point x="258" y="317" type="curve" smooth="yes"/>
      <point x="386" y="317"/>
      <point x="463" y="393"/>
      <point x="463" y="523" type="curve" smooth="yes"/>
      <point x="463" y="631"/>
      <point x="385" y="720"/>
      <point x="258" y="720" type="curve" smooth="yes"/>
      <point x="131" y="720"/>
      <point x="54" y="631"/>
      <point x="54" y="523" type="curve" smooth="yes"/>
      <point x="54" y="393"/>
      <point x="132" y="317"/>
    </contour>
    <contour>
      <point x="257" y="407" type="curve" smooth="yes"/>
      <point x="208" y="407"/>
      <point x="171" y="441"/>
      <point x="171" y="525" type="curve" smooth="yes"/>
      <point x="171" y="597"/>
      <point x="207" y="630"/>
      <point x="256" y="630" type="curve" smooth="yes"/>
      <point x="306" y="630"/>
      <point x="346" y="602"/>
      <point x="346" y="524" type="curve" smooth="yes"/>
      <point x="346" y="443"/>
      <point x="307" y="407"/>
    </contour>
  </outline>
</glyph>
<glyph name="ae" format="2">
  <advance width="935"/>
  <unicode hex="00E6"/>
  <anchor x="476" y="520" name="top"/>
  <anchor x="476" y="0" name="bottom"/>
  <outline>
    <contour>
      <point x="397" y="0" type="line" name="ab01"/>
      <point x="562" y="0" type="line" name="sh01"/>
      <point x="562" y="500" type="line" name="av01"/>
      <point x="397" y="500" type="line"/>
    </contour>
    <contour>
      <point x="235" y="-20" type="curve" smooth="yes" name="dv01"/>
      <point x="359" y="-20"/>
      <point x="433" y="90"/>
      <point x="433" y="257" type="curve" smooth="yes"/>
      <point x="433" y="421"/>
      <point x="361" y="520"/>
      <point x="232" y="520" type="curve" smooth="yes" name="at01"/>
      <point x="97" y="520"/>
      <point x="20" y="411"/>
      <point x="20" y="259" type="curve" smooth="yes"/>
      <point x="20" y="99"/>
      <point x="106" y="-20"/>
    </contour>
    <contour>
      <point x="294.517" y="106" type="curve" smooth="yes" name="dv02"/>
      <point x="231.218" y="106"/>
      <point x="185" y="168"/>
      <point x="185" y="256" type="curve" smooth="yes"/>
      <point x="185" y="341"/>
      <point x="227.199" y="393"/>
      <point x="290.498" y="393" type="curve" smooth="yes" name="sv01"/>
      <point x="355.806" y="393"/>
      <point x="397" y="337"/>
      <point x="397" y="251" type="curve" smooth="yes"/>
      <point x="397" y="166"/>
      <point x="356.81" y="106"/>
    </contour>
    <contour>
      <point x="563" y="326" type="line" name="sv02"/>
      <point x="568.684" y="365.041"/>
      <point x="604.019" y="397"/>
      <point x="658.59" y="397" type="curve" smooth="yes" name="sv01"/>
      <point x="707.233" y="397"/>
      <point x="748.796" y="371.043"/>
      <point x="754" y="326" type="curve" name="dv04"/>
    </contour>
    <contour>
      <point x="813" y="158" type="line"/>
      <point x="784.722" y="123"/>
      <point x="736.545" y="103"/>
      <point x="678.714" y="103" type="curve" smooth="yes" name="dv02"/>
      <point x="602.259" y="103"/>
      <point x="565.565" y="138"/>
      <point x="562" y="212" type="curve" name="sv04"/>
      <point x="912" y="212" type="line" name="dv03"/>
      <point x="923.839" y="404.026"/>
      <point x="842.306" y="520"/>
      <point x="663" y="520" type="curve" smooth="yes" name="at01"/>
      <point x="509.803" y="520"/>
      <point x="409" y="420"/>
      <point x="409" y="254" type="curve" smooth="yes" name="sv03"/>
      <point x="409" y="85"/>
      <point x="513.324" y="-20"/>
      <point x="674.723" y="-20" type="curve" smooth="yes" name="dv01"/>
      <point x="763.108" y="-20"/>
      <point x="846.118" y="12"/>
      <point x="898" y="73" type="curve"/>
    </contour>
  </outline>
</glyph>
<glyph name="oslash" format="2">
  <advance width="616"/>
  <unicode hex="00F8"/>
  <anchor x="417" y="-3" name="ogonek"/>
  <anchor x="308" y="520" name="top"/>
  <anchor x="308" y="-20" name="bottom"/>
  <anchor x="376" y="520" name="topgr"/>
  <outline>
    <contour>
      <point x="308" y="-20" type="curve" smooth="yes" name="dv01"/>
      <point x="473" y="-20"/>
      <point x="577" y="80"/>
      <point x="577" y="255" type="curve" smooth="yes"/>
      <point x="577" y="431"/>
      <point x="469" y="520"/>
      <point x="308" y="520" type="curve" smooth="yes" name="at01"/>
      <point x="155" y="520"/>
      <point x="39" y="429"/>
      <point x="39" y="255" type="curve" smooth="yes"/>
      <point x="39" y="89"/>
      <point x="147" y="-20"/>
    </contour>
    <contour>
      <point x="305" y="103" type="curve" smooth="yes" name="dv02"/>
      <point x="239" y="103"/>
      <point x="204" y="155"/>
      <point x="204" y="254" type="curve" smooth="yes"/>
      <point x="204" y="349"/>
      <point x="238" y="396"/>
      <point x="306" y="396" type="curve" smooth="yes" name="sv01"/>
      <point x="376" y="396"/>
      <point x="412" y="347"/>
      <point x="412" y="252" type="curve" smooth="yes"/>
      <point x="412" y="156"/>
      <point x="374" y="103"/>
    </contour>
    <contour>
      <point x="128.679" y="-77" type="line"/>
      <point x="158.891" y="-77" type="line"/>
      <point x="489.45" y="578.06" type="line"/>
      <point x="459.238" y="578.06" type="line"/>
    </contour>
  </outline>
</glyph>
<glyph name="Tbar" format="2">
  <advance width="648"/>
  <unicode hex="0166"/>
  <anchor x="324" y="719" name="top"/>
  <anchor x="324" y="-20" name="bottom"/>
  <outline>
    <contour>
      <point x="241" y="0" type="line" name="ab01"/>
      <point x="407" y="0" type="line"/>
      <point x="407" y="570" type="line" name="sv02"/>
      <point x="627" y="570" type="line" name="sv03"/>
      <point x="627" y="700" type="line"/>
      <point x="21" y="700" type="line" name="at01"/>
      <point x="21" y="570" type="line" name="sv01"/>
      <point x="241" y="570" type="line"/>
    </contour>
    <contour>
      <point x="74" y="338" type="line"/>
      <point x="574" y="338" type="line"/>
      <point x="574" y="374" type="line"/>
      <point x="74" y="374" type="line"/>
    </contour>
  </outline>
</glyph>
<glyph name="tbar" format="2">
  <advance width="395"/>
  <unicode hex="0167"/>
  <anchor x="175" y="630" name="top"/>
  <anchor x="230" y="-20" name="bottom"/>
  <anchor x="283" y="700" name="topright"/>
  <outline>
    <contour>
      <point x="355.69" y="121.85" type="line"/>
      <point x="333.18" y="111.36"/>
      <point x="308.27" y="106.99"/>
      <point x="295" y="107" type="curve" name="dv02"/>
      <point x="265" y="107"/>
      <point x="256" y="127"/>
      <point x="256" y="193" type="curve" smooth="yes"/>
      <point x="256" y="620" type="line" name="ab01"/>
      <point x="91" y="620" type="line"/>
      <point x="91" y="132" type="line" smooth="yes"/>
      <point x="91" y="33"/>
      <point x="142" y="-20"/>
      <point x="251" y="-20" type="curve" smooth="yes" name="dv01"/>
      <point x="293.23" y="-20"/>
      <point x="333.11" y="-9.44"/>
      <point x="385.89" y="9.11" type="curve"/>
    </contour>
    <contour>
      <point x="14" y="380" type="line" name="dv03"/>
      <point x="378" y="380" type="line"/>
      <point x="378" y="500" type="line"/>
      <point x="14" y="500" type="line" name="dv04"/>
    </contour>
    <contour>
      <point x="24.441" y="231" type="line"/>
      <point x="351.451" y="231" type="line"/>
      <point x="351.451" y="287" type="line"/>
      <point x="24.441" y="287" type="line"/>
    </contour>
  </outline>
</glyph>
<glyph name="schwa" format="2">
  <advance width="613"/>
  <unicode hex="0259"/>
  <anchor x="306" y="520" name="top"/>
  <anchor x="306" y="-20" name="bottom"/>
  <outline>
    <contour>
      <point x="408" y="204" type="line" name="ah01"/>
      <point x="399" y="130"/>
      <point x="358" y="104"/>
      <point x="309" y="104" type="curve" smooth="yes" name="dv02"/>
      <point x="257" y="104"/>
      <point x="222" y="134"/>
      <point x="214" y="204" type="curve" name="dv03"/>
    </contour>
    <contour>
      <point x="53" y="304" type="line" name="dv04"/>
      <point x="51" y="290"/>
      <point x="49" y="278"/>
      <point x="49" y="255" type="curve" smooth="yes" name="sh01"/>
      <point x="49" y="90"/>
      <point x="154" y="-20"/>
      <point x="312" y="-20" type="curve" smooth="yes" name="dv01"/>
      <point x="471" y="-20"/>
      <point x="574" y="92"/>
      <point x="574" y="256" type="curve" smooth="yes" name="sh02"/>
      <point x="574" y="418"/>
      <point x="473" y="520"/>
      <point x="301" y="520" type="curve" smooth="yes" name="at01"/>
      <point x="204" y="520"/>
      <point x="124" y="488"/>
      <point x="74" y="427" type="curve" name="dv05"/>
      <point x="159" y="342" type="line" name="sh04"/>
      <point x="189.699" y="377"/>
      <point x="242" y="397"/>
      <point x="293" y="397" type="curve" smooth="yes" name="sv01"/>
      <point x="355" y="397"/>
      <point x="402.385" y="367"/>
      <point x="410" y="304" type="curve" name="sh03"/>
    </contour>
  </outline>
</glyph>
<glyph name="breve" format="2">
  <advance width="336"/>
  <unicode hex="02D8"/>
  <outline>
    <contour>
      <point x="24" y="702" type="line"/>
      <point x="33" y="608.47"/>
      <point x="84" y="551"/>
      <point x="165" y="551" type="curve" smooth="yes"/>
      <point x="249" y="551"/>
      <point x="306" y="612.978"/>
      <point x="315" y="702" type="curve"/>
      <point x="225" y="702" type="line"/>
      <point x="220" y="659.132"/>
      <point x="202" y="631"/>
      <point x="167" y="631" type="curve" smooth="yes"/>
      <point x="135" y="631"/>
      <point x="119" y="655.981"/>
      <point x="114" y="702" type="curve"/>
    </contour>
  </outline>
</glyph>
<glyph name="ring" format="2">
  <advance width="270"/>
  <unicode hex="02DA"/>
  <outline>
    <contour>
      <point x="27" y="618" type="curve" smooth="yes"/>
      <point x="27" y="554"/>
      <point x="70" y="513"/>
      <point x="135" y="513" type="curve" smooth="yes"/>
      <point x="200" y="513"/>
      <point x="243" y="554"/>
      <point x="243" y="618" type="curve" smooth="yes"/>
      <point x="243" y="681"/>
      <point x="200" y="723"/>
      <point x="135" y="723" type="curve" smooth="yes"/>
      <point x="70" y="723"/>
      <point x="27" y="681"/>
    </contour>
    <contour>
      <point x="135" y="572" type="curve" smooth="yes"/>
      <point x="108" y="572"/>
      <point x="90" y="589"/>
      <point x="90" y="618" type="curve" smooth="yes"/>
      <point x="90" y="646"/>
      <point x="108" y="664"/>
      <point x="135" y="664" type="curve" smooth="yes"/>
      <point x="162" y="664"/>
      <point x="180" y="646"/>
      <point x="180" y="618" type="curve" smooth="yes"/>
      <point x="180" y="590"/>
      <point x="162" y="572"/>
    </contour>
  </outline>
</glyph>
<glyph name="acutecomb" format="2">
  <advance width="287"/>
  <unicode hex="0301"/>
  <anchor x="142" y="700" name="top"/>
  <anchor x="126" y="500" name="_top"/>
  <outline>
    <contour>
      <point x="72" y="550" type="line"/>
      <point x="170" y="550" type="line"/>
      <point x="277" y="701" type="line"/>
      <point x="143" y="701" type="line"/>
    </contour>
  </outline>
</glyph>
<glyph name="cedillacomb" format="2">
  <advance width="302"/>
  <unicode hex="0327"/>
  <anchor x="171" y="-10" name="_bottom"/>
  <anchor x="151" y="-208" name="bottom"/>
  <outline>
    <contour>
      <point x="24" y="-195" type="line"/>
      <point x="46" y="-201"/>
      <point x="79" y="-208"/>
      <point x="126" y="-208" type="curve" smooth="yes"/>
      <point x="223" y="-208"/>
      <point x="275" y="-182"/>
      <point x="275" y="-123" type="curve" smooth="yes"/>
      <point x="275" y="-77"/>
      <point x="244" y="-54"/>
      <point x="174" y="-54" type="curve"/>
      <point x="221.224" y="29" type="line"/>
      <point x="128.224" y="29" type="line"/>
      <point x="63" y="-94" type="line"/>
      <point x="78" y="-92"/>
      <point x="96" y="-90"/>
      <point x="110" y="-90" type="curve" smooth="yes"/>
      <point x="143" y="-90"/>
      <point x="162" y="-101"/>
      <point x="162" y="-124" type="curve" smooth="yes"/>
      <point x="162" y="-145"/>
      <point x="146" y="-158"/>
      <point x="117" y="-158" type="curve" smooth="yes"/>
      <point x="99" y="-158"/>
      <point x="64" y="-153"/>
      <point x="44" y="-147" type="curve"/>
    </contour>
  </outline>
</glyph>
<glyph name="Delta" format="2">
  <advance width="655"/>
  <unicode hex="0394"/>
  <outline>
    <contour>
      <point x="163" y="0" type="line" name="dv01"/>
      <point x="489" y="0" type="line"/>
      <point x="445" y="130" type="line" name="dv03"/>
      <point x="207" y="130" type="line" name="dv02"/>
    </contour>
    <contour>
      <point x="7" y="0" type="line"/>
      <point x="181" y="0" type="line"/>
      <point x="382" y="700" type="line"/>
      <point x="234" y="700" type="line"/>
    </contour>
    <contour>
      <point x="474" y="0" type="line"/>
      <point x="648" y="0" type="line"/>
      <point x="421" y="700" type="line"/>
      <point x="273" y="700" type="line"/>
    </contour>
  </outline>
</glyph>
<glyph name="iota" format="2">
  <advance width="300"/>
  <unicode hex="03B9"/>
  <anchor x="128" y="520" name="topgr"/>
  <outline>
    <contour>
      <point x="268" y="120" type="line"/>
      <point x="231" y="120"/>
      <point x="212" y="135.079"/>
      <point x="212" y="197.407" type="curve" smooth="yes"/>
      <point x="212" y="500" type="line"/>
      <point x="47" y="500" type="line"/>
      <point x="47" y="153" type="line" smooth="yes"/>
      <point x="47" y="47"/>
      <point x="101" y="0"/>
      <point x="220" y="0" type="curve" smooth="yes"/>
      <point x="268" y="0" type="line"/>
    </contour>
  </outline>
</glyph>
<glyph name="nu" format="2">
  <advance width="566"/>
  <unicode hex="03BD"/>
  <outline>
    <contour>
      <point x="277" y="-19" type="line" smooth="yes"/>
      <point x="449" y="-19"/>
      <point x="546" y="92"/>
      <point x="546" y="263" type="curve" smooth="yes"/>
      <point x="546" y="359"/>
      <point x="515" y="446"/>
      <point x="479" y="500" type="curve"/>
      <point x="319" y="500" type="line"/>
      <point x="354" y="440"/>
      <point x="381" y="368"/>
      <point x="381" y="267" type="curve" smooth="yes"/>
      <point x="381" y="169"/>
      <point x="356" y="116"/>
      <point x="300" y="104" type="curve"/>
      <point x="171" y="500" type="line"/>
      <point x="-5" y="500" type="line"/>
      <point x="174" y="-19" type="line"/>
    </contour>
  </outline>
</glyph>
<glyph name="upsilon" format="2">
  <advance width="589"/>
  <unicode hex="03C5"/>
  <anchor x="283" y="520" name="topgr"/>
  <outline>
    <contour>
      <point x="57" y="500" type="line"/>
      <point x="57" y="185" type="line" smooth="yes"/>
      <point x="57" y="57"/>
      <point x="155" y="-20"/>
      <point x="306" y="-20" type="curve" smooth="yes"/>
      <point x="480" y="-20"/>
      <point x="569" y="81"/>
      <point x="569" y="256" type="curve" smooth="yes"/>
      <point x="569" y="349"/>
      <point x="544" y="434"/>
      <point x="502" y="500" type="curve"/>
      <point x="343" y="500" type="line"/>
      <point x="378" y="430"/>
      <point x="404" y="355"/>
      <point x="404" y="249" type="curve" smooth="yes"/>
      <point x="404" y="150"/>
      <point x="381" y="103"/>
      <point x="311" y="103" type="curve" smooth="yes"/>
      <point x="249" y="103"/>
      <point x="222" y="141"/>
      <point x="222" y="237" type="curve" smooth="yes"/>
      <point x="222" y="500" type="line"/>
    </contour>
  </outline>
</glyph>
<glyph name="chi" format="2">
  <advance width="646"/>
  <unicode hex="03C7"/>
  <anchor x="323" y="520" name="topgr"/>
  <outline>
    <contour>
      <point x="619" y="-96" type="line"/>
      <point x="500.136" y="-96"/>
      <point x="442.975" y="-28.184"/>
      <point x="388.003" y="178.052" type="curve" smooth="yes"/>
      <point x="320.515" y="431.246"/>
      <point x="233.044" y="520"/>
      <point x="51" y="520" type="curve"/>
      <point x="51" y="397" type="line"/>
      <point x="146.327" y="397"/>
      <point x="191.961" y="338.548"/>
      <point x="245.284" y="148.145" type="curve" smooth="yes"/>
      <point x="320.631" y="-120.9"/>
      <point x="420.487" y="-219"/>
      <point x="619" y="-219" type="curve"/>
    </contour>
    <contour>
      <point x="24" y="-200" type="line" name="ab01"/>
      <point x="207" y="-200" type="line"/>
      <point x="621" y="500" type="line" name="at01"/>
      <point x="438" y="500" type="line"/>
    </contour>
  </outline>
</glyph>
<glyph name="kaisymbol" format="2">
  <advance width="594"/>
  <unicode hex="03D7"/>
  <outline>
    <contour>
      <point x="64" y="0" type="line" name="ab01"/>
      <point x="229" y="0" type="line"/>
      <point x="229" y="500" type="line"/>
      <point x="64" y="500" type="line" name="av01"/>
    </contour>
    <contour>
      <point x="120" y="199" type="line"/>
      <point x="306" y="199" type="line" name="iv01"/>
      <point x="399" y="0" type="line" name="ab02"/>
      <point x="587" y="0" type="line"/>
      <point x="446" y="265" type="line"/>
      <point x="571" y="500" type="line" name="av02"/>
      <point x="408" y="500" type="line"/>
      <point x="323" y="318" type="line" name="iv02"/>
      <point x="119" y="318" type="line"/>
    </contour>
    <contour>
      <point x="225" y="-203" type="line"/>
      <point x="436" y="-203"/>
      <point x="587" y="-143"/>
      <point x="587" y="0" type="curve"/>
      <point x="399" y="1" type="line"/>
      <point x="399" y="-63"/>
      <point x="344" y="-81"/>
      <point x="225" y="-81" type="curve"/>
    </contour>
  </outline>
</glyph>
<glyph name="Zhecyr" format="2">
  <advance width="925"/>
  <unicode hex="0416"/>
  <anchor x="463" y="720" name="top"/>
  <outline>
    <contour>
      <point x="79" y="470" type="line"/>
      <point x="85.61" y="411.57"/>
      <point x="105.9" y="368.93"/>
      <point x="139.69" y="342.44" type="curve"/>
      <point x="15" y="0" type="line"/>
      <point x="192" y="0" type="line"/>
      <point x="305.07" y="310" type="line"/>
      <point x="382" y="310" type="line"/>
      <point x="382" y="0" type="line" name="av01"/>
      <point x="547" y="0" type="line"/>
      <point x="547" y="310" type="line"/>
      <point x="623.92" y="310" type="line"/>
      <point x="737" y="0" type="line"/>
      <point x="914" y="0" type="line"/>
      <point x="789.3" y="342.44" type="line"/>
      <point x="823.1" y="368.93"/>
      <point x="843.39" y="411.57"/>
      <point x="850" y="470" type="curve"/>
      <point x="871" y="700" type="line"/>
      <point x="709" y="700" type="line"/>
      <point x="695" y="552" type="line" smooth="yes"/>
      <point x="687" y="468"/>
      <point x="664" y="440"/>
      <point x="606" y="440" type="curve" smooth="yes"/>
      <point x="547" y="440" type="line"/>
      <point x="547" y="700" type="line" name="av02"/>
      <point x="382" y="700" type="line"/>
      <point x="382" y="440" type="line"/>
      <point x="323" y="440" type="line" smooth="yes"/>
      <point x="264" y="440"/>
      <point x="242" y="467"/>
      <point x="234" y="551" type="curve" smooth="yes"/>
      <point x="220" y="700" type="line"/>
      <point x="58" y="700" type="line"/>
    </contour>
  </outline>
</glyph>
<glyph name="Efcyr" format="2">
  <advance width="836"/>
  <unicode hex="0424"/>
  <outline>
    <contour>
      <point x="335" y="-20" type="line"/>
      <point x="501" y="-20" type="line"/>
      <point x="501" y="60" type="line"/>
      <point x="669" y="60"/>
      <point x="798" y="179"/>
      <point x="798" y="354" type="curve" smooth="yes"/>
      <point x="798" y="527"/>
      <point x="671" y="642"/>
      <point x="501" y="642" type="curve"/>
      <point x="501" y="722" type="line"/>
      <point x="335" y="722" type="line"/>
      <point x="335" y="642" type="line"/>
      <point x="165" y="642"/>
      <point x="38" y="527"/>
      <point x="38" y="354" type="curve" smooth="yes"/>
      <point x="38" y="179"/>
      <point x="167" y="60"/>
      <point x="335" y="60" type="curve"/>
    </contour>
    <contour>
      <point x="501" y="512" type="line"/>
      <point x="576" y="512"/>
      <point x="631" y="455"/>
      <point x="631" y="356" type="curve" smooth="yes"/>
      <point x="631" y="254"/>
      <point x="573" y="190"/>
      <point x="501" y="190" type="curve"/>
    </contour>
    <contour>
      <point x="335" y="190" type="line"/>
      <point x="263" y="190"/>
      <point x="205" y="254"/>
      <point x="205" y="356" type="curve" smooth="yes"/>
      <point x="205" y="455"/>
      <point x="260" y="512"/>
      <point x="335" y="512" type="curve"/>
    </contour>
  </outline>
</glyph>
<glyph name="Hardcyr" format="2">
  <advance width="735"/>
  <unicode hex="042A"/>
  <outline>
    <contour>
      <point x="21" y="569" type="line"/>
      <point x="194" y="569" type="line"/>
      <point x="227" y="694" type="line"/>
      <point x="227" y="700" type="line"/>
      <point x="21" y="700" type="line"/>
    </contour>
    <contour>
      <point x="169" y="0" type="line"/>
      <point x="445" y="0" type="line" smooth="yes"/>
      <point x="606" y="0"/>
      <point x="696" y="97.237"/>
      <point x="696" y="230.023" type="curve" smooth="yes"/>
      <point x="696" y="363.854"/>
      <point x="605" y="459"/>
      <point x="444" y="459" type="curve" smooth="yes"/>
      <point x="335" y="459" type="line"/>
      <point x="335" y="700" type="line"/>
      <point x="169" y="700" type="line"/>
    </contour>
    <contour>
      <point x="335" y="130" type="line"/>
      <point x="335" y="328" type="line"/>
      <point x="405" y="328" type="line" smooth="yes"/>
      <point x="488" y="328"/>
      <point x="530" y="304.978"/>
      <point x="530" y="231.562" type="curve" smooth="yes"/>
      <point x="530" y="157.034"/>
      <point x="488" y="130"/>
      <point x="405" y="130" type="curve" smooth="yes"/>
    </contour>
  </outline>
</glyph>
<glyph name="becyr" format="2">
  <advance width="582"/>
  <unicode hex="0431"/>
  <outline>
    <contour>
      <point x="508" y="749" type="line"/>
      <point x="452.919" y="707.305"/>
      <point x="372.73" y="693.95"/>
      <point x="332.127" y="689" type="curve" smooth="yes"/>
      <point x="93.458" y="659.906"/>
      <point x="20" y="536.215"/>
      <point x="20" y="327.51" type="curve" smooth="yes"/>
      <point x="20" y="90.844"/>
      <point x="114.05" y="-20"/>
      <point x="297.302" y="-20" type="curve" smooth="yes"/>
      <point x="465.041" y="-20"/>
      <point x="562" y="74"/>
      <point x="562" y="235" type="curve" smooth="yes"/>
      <point x="562" y="392"/>
      <point x="470.882" y="480"/>
      <point x="340.44" y="480" type="curve" smooth="yes"/>
      <point x="240.69" y="480"/>
      <point x="163" y="429"/>
      <point x="128" y="353" type="curve"/>
      <point x="128" y="499"/>
      <point x="168.152" y="551.462"/>
      <point x="336.665" y="569" type="curve" smooth="yes"/>
      <point x="417.978" y="577.462"/>
      <point x="474.499" y="594"/>
      <point x="508" y="620" type="curve"/>
    </contour>
    <contour>
      <point x="295.348" y="100" type="curve" smooth="yes"/>
      <point x="227.888" y="100"/>
      <point x="190" y="148.376"/>
      <point x="190" y="230.012" type="curve" smooth="yes"/>
      <point x="190" y="312.655"/>
      <point x="229.737" y="357"/>
      <point x="297.196" y="357" type="curve" smooth="yes"/>
      <point x="364.656" y="357"/>
      <point x="397" y="312.655"/>
      <point x="397" y="232.027" type="curve" smooth="yes"/>
      <point x="397" y="148.376"/>
      <point x="362.808" y="100"/>
    </contour>
  </outline>
</glyph>
<glyph name="vecyr" format="2">
  <advance width="536"/>
  <unicode hex="0432"/>
  <anchor x="263" y="520" name="top"/>
  <anchor x="263" y="-20" name="bottom"/>
  <outline>
    <contour>
      <point x="43" y="0" type="line"/>
      <point x="301" y="0" type="line" smooth="yes"/>
      <point x="441" y="0"/>
      <point x="516" y="49"/>
      <point x="516" y="146" type="curve" smooth="yes"/>
      <point x="516" y="219"/>
      <point x="474" y="254"/>
      <point x="363" y="265" type="curve"/>
      <point x="451" y="283"/>
      <point x="484" y="314"/>
      <point x="484" y="379" type="curve" smooth="yes"/>
      <point x="484" y="465"/>
      <point x="427" y="500"/>
      <point x="291" y="500" type="curve" smooth="yes"/>
      <point x="43" y="500" type="line"/>
    </contour>
    <contour>
      <point x="208" y="117" type="line"/>
      <point x="208" y="205" type="line"/>
      <point x="298" y="205" type="line" smooth="yes"/>
      <point x="333" y="205"/>
      <point x="360" y="197.295"/>
      <point x="360" y="163.2" type="curve" smooth="yes"/>
      <point x="360" y="128"/>
      <point x="330" y="117"/>
      <point x="298" y="117" type="curve" smooth="yes"/>
    </contour>
    <contour>
      <point x="208" y="302" type="line"/>
      <point x="208" y="382" type="line"/>
      <point x="271" y="382" type="line" smooth="yes"/>
      <point x="311" y="382"/>
      <point x="328" y="372"/>
      <point x="328" y="342" type="curve" smooth="yes"/>
      <point x="328" y="313.103"/>
      <point x="313" y="302"/>
      <point x="271" y="302" type="curve" smooth="yes"/>
    </contour>
  </outline>
</glyph>
<glyph name="tsecyr" format="2">
  <advance width="676"/>
  <unicode hex="0446"/>
  <outline>
    <contour>
      <point x="43" y="0" type="line"/>
      <point x="480" y="0" type="line" smooth="yes"/>
      <point x="547" y="0"/>
      <point x="534" y="-72"/>
      <point x="534" y="-140" type="curve"/>
      <point x="651" y="-140" type="line"/>
      <point x="651" y="62"/>
      <point x="630.174" y="130"/>
      <point x="531" y="130" type="curve"/>
      <point x="531" y="500" type="line"/>
      <point x="366" y="500" type="line"/>
      <point x="366" y="130" type="line"/>
      <point x="208" y="130" type="line"/>
      <point x="208" y="500" type="line"/>
      <point x="43" y="500" type="line"/>
    </contour>
  </outline>
</glyph>
<glyph name="checyr" format="2">
  <advance width="575"/>
  <unicode hex="0447"/>
  <anchor x="288" y="-20" name="bottom"/>
  <anchor x="288" y="520" name="top"/>
  <outline>
    <contour>
      <point x="357" y="0" type="line" name="ab01"/>
      <point x="522" y="0" type="line" name="sh01"/>
      <point x="522" y="500" type="line" name="av01"/>
      <point x="357" y="500" type="line"/>
      <point x="357" y="359" type="line" smooth="yes"/>
      <point x="357" y="291"/>
      <point x="313.968" y="267"/>
      <point x="270.533" y="267" type="curve" smooth="yes"/>
      <point x="229.971" y="267"/>
      <point x="212" y="287.93"/>
      <point x="212" y="340" type="curve" smooth="yes"/>
      <point x="212" y="500" type="line"/>
      <point x="47" y="500" type="line"/>
      <point x="47" y="340" type="line" smooth="yes"/>
      <point x="47" y="207"/>
      <point x="124.566" y="143"/>
      <point x="223.331" y="143" type="curve" smooth="yes"/>
      <point x="273.592" y="143"/>
      <point x="327.56" y="165.43"/>
      <point x="357" y="211.57" type="curve"/>
    </contour>
  </outline>
</glyph>
<glyph name="dzhecyr" format="2">
  <advance width="605"/>
  <unicode hex="045F"/>
  <outline>
    <contour>
      <point x="53" y="0" type="line"/>
      <point x="247" y="0" type="line"/>
      <point x="262" y="-42"/>
      <point x="260" y="-97"/>
      <point x="251" y="-141" type="curve"/>
      <point x="363" y="-141" type="line"/>
      <point x="379" y="-88"/>
      <point x="375" y="-52"/>
      <point x="357" y="0" type="curve"/>
      <point x="552" y="0" type="line"/>
      <point x="552" y="500" type="line"/>
      <point x="387" y="500" type="line"/>
      <point x="387" y="122" type="line"/>
      <point x="218" y="122" type="line"/>
      <point x="218" y="500" type="line"/>
      <point x="53" y="500" type="line"/>
    </contour>
  </outline>
</glyph>
<glyph name="Geupcyr" format="2">
  <advance width="557"/>
  <unicode hex="0490"/>
  <outline>
    <contour>
      <point x="67" y="0" type="line"/>
      <point x="233" y="0" type="line"/>
      <point x="233" y="570" type="line"/>
      <point x="343" y="570" type="line" smooth="yes"/>
      <point x="502" y="570"/>
      <point x="547" y="624"/>
      <point x="547" y="814" type="curve"/>
      <point x="414" y="814" type="line"/>
      <point x="414" y="720"/>
      <point x="397" y="700"/>
      <point x="342" y="700" type="curve" smooth="yes"/>
      <point x="67" y="700" type="line"/>
    </contour>
  </outline>
</glyph>
<glyph name="Germandbls" format="2">
  <advance width="715"/>
  <unicode hex="1E9E"/>
  <outline>
    <contour>
      <point x="50" y="0" type="line"/>
      <point x="216" y="0" type="line"/>
      <point x="216" y="456.335" type="line" smooth="yes"/>
      <point x="216" y="557.006"/>
      <point x="247.668" y="589"/>
      <point x="370.41" y="589" type="curve" smooth="yes"/>
      <point x="399.617" y="589"/>
      <point x="430.528" y="584.498"/>
      <point x="449.103" y="573.656" type="curve"/>
      <point x="433.451" y="591.689" type="line"/>
      <point x="393.911" y="540.675" type="line" smooth="yes"/>
      <point x="365.671" y="504.24"/>
      <point x="343" y="467.208"/>
      <point x="343" y="398.169" type="curve" smooth="yes"/>
      <point x="343" y="228.072"/>
      <point x="532" y="255.082"/>
      <point x="532" y="160.028" type="curve" smooth="yes"/>
      <point x="532" y="135.014"/>
      <point x="517.111" y="111"/>
      <point x="471.514" y="111" type="curve" smooth="yes"/>
      <point x="429.639" y="111"/>
      <point x="398" y="131"/>
      <point x="367" y="169" type="curve"/>
      <point x="273" y="75" type="line"/>
      <point x="312" y="18"/>
      <point x="374.376" y="-20"/>
      <point x="475.736" y="-20" type="curve" smooth="yes"/>
      <point x="640.447" y="-20"/>
      <point x="696" y="81"/>
      <point x="696" y="170" type="curve" smooth="yes"/>
      <point x="696" y="352"/>
      <point x="509" y="338"/>
      <point x="509" y="413" type="curve" smooth="yes"/>
      <point x="509" y="445"/>
      <point x="524.614" y="473.827"/>
      <point x="540" y="495" type="curve" smooth="yes"/>
      <point x="657.818" y="657.135" type="line"/>
      <point x="648.651" y="638.713" type="line"/>
      <point x="583.236" y="682.465"/>
      <point x="492.262" y="720"/>
      <point x="357.038" y="720" type="curve" smooth="yes"/>
      <point x="157.92" y="720"/>
      <point x="50" y="638.806"/>
      <point x="50" y="489" type="curve" smooth="yes"/>
    </contour>
  </outline>
</glyph>
<glyph name="eight.superior" format="2">
  <advance width="410"/>
  <unicode hex="2078"/>
  <outline>
    <contour>
      <point x="146" y="598" type="curve"/>
      <point x="68" y="586"/>
      <point x="21" y="540"/>
      <point x="21" y="476" type="curve" smooth="yes"/>
      <point x="21" y="395"/>
      <point x="96" y="338"/>
      <point x="205" y="338" type="curve" smooth="yes"/>
      <point x="317" y="338"/>
      <point x="389" y="398"/>
      <point x="389" y="479" type="curve" smooth="yes"/>
      <point x="389" y="542"/>
      <point x="345" y="586"/>
      <point x="268" y="598" type="curve"/>
      <point x="331" y="612"/>
      <point x="370" y="654"/>
      <point x="370" y="710" type="curve" smooth="yes"/>
      <point x="370" y="785"/>
      <point x="298" y="832"/>
      <point x="202" y="832" type="curve" smooth="yes"/>
      <point x="104" y="832"/>
      <point x="40" y="784"/>
      <point x="40" y="711" type="curve" smooth="yes"/>
      <point x="40" y="654"/>
      <point x="80" y="612"/>
    </contour>
    <contour>
      <point x="134" y="494" type="curve" smooth="yes"/>
      <point x="134" y="531"/>
      <point x="162" y="557"/>
      <point x="205" y="557" type="curve" smooth="yes"/>
      <point x="246" y="557"/>
      <point x="275" y="533"/>
      <point x="275" y="494" type="curve" smooth="yes"/>
      <point x="275" y="455"/>
      <point x="246" y="428"/>
      <point x="205" y="428" type="curve" smooth="yes"/>
      <point x="164" y="428"/>
      <point x="134" y="455"/>
    </contour>
    <contour>
      <point x="153" y="693" type="curve" smooth="yes"/>
      <point x="153" y="725"/>
      <point x="173" y="742"/>
      <point x="205" y="742" type="curve" smooth="yes"/>
      <point x="236" y="742"/>
      <point x="255" y="725"/>
      <point x="255" y="692" type="curve" smooth="yes"/>
      <point x="255" y="661"/>
      <point x="238" y="644"/>
      <point x="205" y="644" type="curve" smooth="yes"/>
      <point x="172" y="644"/>
      <point x="153" y="662"/>
    </contour>
  </outline>
</glyph>
<glyph name="ruble" format="2">
  <advance width="720"/>
  <unicode hex="20BD"/>
  <outline>
    <contour>
      <point x="145" y="0" type="line"/>
      <point x="311" y="0" type="line"/>
      <point x="311" y="570" type="line"/>
      <point x="392" y="570" type="line" smooth="yes"/>
      <point x="474" y="570"/>
      <point x="514" y="537"/>
      <point x="514" y="458" type="curve" smooth="yes"/>
      <point x="514" y="380"/>
      <point x="475" y="347"/>
      <point x="392" y="347" type="curve" smooth="yes"/>
      <point x="45" y="347" type="line"/>
      <point x="45" y="216" type="line"/>
      <point x="410" y="216" type="line" smooth="yes"/>
      <point x="575" y="216"/>
      <point x="681" y="311"/>
      <point x="681" y="459" type="curve" smooth="yes"/>
      <point x="681" y="606"/>
      <point x="576" y="700"/>
      <point x="410" y="700" type="curve" smooth="yes"/>
      <point x="145" y="700" type="line"/>
    </contour>
    <contour>
      <point x="45" y="87" type="line"/>
      <point x="619" y="87" type="line"/>
      <point x="619" y="157" type="line"/>
      <point x="45" y="157" type="line"/>
    </contour>
  </outline>
</glyph>
<glyph name="fi" format="2">
  <advance width="685"/>
  <unicode hex="FB01"/>
  <outline>
    <contour>
      <point x="89" y="0" type="line" name="ab01"/>
      <point x="254" y="0" type="line"/>
      <point x="254" y="380" type="line" name="sv01"/>
      <point x="499.056" y="380" type="line"/>
      <point x="499.056" y="500" type="line" name="sv02"/>
      <point x="254" y="500" type="line"/>
      <point x="254" y="547" type="line" smooth="yes"/>
      <point x="254" y="593"/>
      <point x="270" y="627"/>
      <point x="312" y="627" type="curve" smooth="yes" name="dv01"/>
      <point x="324" y="627"/>
      <point x="348" y="624"/>
      <point x="366" y="617" type="curve"/>
      <point x="396" y="728" type="line"/>
      <point x="337" y="746"/>
      <point x="307" y="751"/>
      <point x="273" y="751" type="curve" smooth="yes" name="dv02"/>
      <point x="158" y="751"/>
      <point x="89" y="694"/>
      <point x="89" y="588" type="curve" smooth="yes"/>
      <point x="89" y="500" type="line" name="dv04"/>
      <point x="12" y="500" type="line"/>
      <point x="12" y="380" type="line"/>
      <point x="89" y="380" type="line" name="dv03"/>
    </contour>
    <contour>
      <point x="467" y="0" type="line" name="ab01"/>
      <point x="632" y="0" type="line"/>
      <point x="632" y="500" type="line"/>
      <point x="467" y="500" type="line" name="av01"/>
    </contour>
    <contour>
      <point x="464.769" y="629.957" type="curve" smooth="yes"/>
      <point x="464.769" y="592.618"/>
      <point x="494.449" y="547.62"/>
      <point x="550.936" y="547.62" type="curve" smooth="yes" name="dv01"/>
      <point x="605.509" y="547.62"/>
      <point x="634.231" y="588.789"/>
      <point x="634.231" y="630.915" type="curve" smooth="yes"/>
      <point x="634.231" y="672.084"/>
      <point x="605.509" y="710.38"/>
      <point x="551.894" y="710.38" type="curve" smooth="yes" name="dv02"/>
      <point x="494.449" y="710.38"/>
      <point x="464.769" y="667.297"/>
    </contour>
  </outline>
</glyph>
<glyph name="Ccedilla.ss10" format="2">
  <advance width="715"/>
  <anchor x="377" y="719" name="top"/>
  <anchor x="377" y="-217" name="bottom"/>
  <outline>
    <contour>
      <point x="642" y="276" type="line"/>
      <point x="567" y="156"/>
      <point x="489" y="111"/>
      <point x="400" y="111" type="curve" smooth="yes"/>
      <point x="270.4" y="111"/>
      <point x="194" y="209"/>
      <point x="194" y="356" type="curve" smooth="yes"/>
      <point x="194" y="495.8"/>
      <point x="267.2" y="589"/>
      <point x="392" y="589" type="curve" smooth="yes"/>
      <point x="482" y="589"/>
      <point x="558" y="544"/>
      <point x="633" y="424" type="curve"/>
      <point x="678" y="583" type="line"/>
      <point x="614" y="666"/>
      <point x="512" y="720"/>
      <point x="385" y="720" type="curve" smooth="yes"/>
      <point x="170.8" y="720"/>
      <point x="28" y="574.8"/>
      <point x="28" y="357" type="curve" smooth="yes"/>
      <point x="28" y="130.8"/>
      <point x="174.4" y="-20"/>
      <point x="394" y="-20" type="curve" smooth="yes"/>
      <point x="519" y="-20"/>
      <point x="623" y="34"/>
      <point x="687" y="117" type="curve"/>
    </contour>
    <contour>
      <point x="250" y="-204" type="line"/>
      <point x="272" y="-210"/>
      <point x="305" y="-217"/>
      <point x="352" y="-217" type="curve" smooth="yes"/>
      <point x="449" y="-217"/>
      <point x="501" y="-191"/>
      <point x="501" y="-132" type="curve" smooth="yes"/>
      <point x="501" y="-86"/>
      <point x="470" y="-63"/>
      <point x="400" y="-63" type="curve"/>
      <point x="447.224" y="20" type="line"/>
      <point x="354.224" y="20" type="line"/>
      <point x="289" y="-103" type="line"/>
      <point x="304" y="-101"/>
      <point x="322" y="-99"/>
      <point x="336" y="-99" type="curve" smooth="yes"/>
      <point x="369" y="-99"/>
      <point x="388" y="-110"/>
      <point x="388" y="-133" type="curve" smooth="yes"/>
      <point x="388" y="-154"/>
      <point x="372" y="-167"/>
      <point x="343" y="-167" type="curve" smooth="yes"/>
      <point x="325" y="-167"/>
      <point x="290" y="-162"/>
      <point x="270" y="-156" type="curve"/>
    </contour>
  </outline>
</glyph>
<glyph name="Efcyr.loclBGR" format="2">
  <advance width="816"/>
  <outline>
    <contour>
      <point x="325" y="-80" type="line"/>
      <point x="491" y="-80" type="line"/>
      <point x="491" y="0" type="line"/>
      <point x="669.2" y="0"/>
      <point x="788" y="141.443"/>
      <point x="788" y="353.608" type="curve" smooth="yes"/>
      <point x="788" y="561.443"/>
      <point x="669.2" y="700"/>
      <point x="491" y="700" type="curve"/>
      <point x="491" y="780" type="line"/>
      <point x="325" y="780" type="line"/>
      <point x="325" y="700" type="line"/>
      <point x="146.8" y="700"/>
      <point x="28" y="561.443"/>
      <point x="28" y="353.608" type="curve" smooth="yes"/>
      <point x="28" y="141.443"/>
      <point x="146.8" y="0"/>
      <point x="325" y="0" type="curve"/>
    </contour>
    <contour>
      <point x="491" y="570" type="line"/>
      <point x="566" y="570"/>
      <point x="621" y="486.112"/>
      <point x="621" y="350.832" type="curve" smooth="yes"/>
      <point x="621" y="211.453"/>
      <point x="563" y="130"/>
      <point x="491" y="130" type="curve"/>
    </contour>
    <contour>
      <point x="325" y="130" type="line"/>
      <point x="253" y="130"/>
      <point x="195" y="211.453"/>
      <point x="195" y="350.832" type="curve" smooth="yes"/>
      <point x="195" y="486.112"/>
      <point x="250" y="570"/>
      <point x="325" y="570" type="curve"/>
    </contour>
  </outline>
</glyph>
<glyph name="Eng.ss12" format="2">
  <advance width="732"/>
  <anchor x="366" y="719" name="top"/>
  <anchor x="348" y="-214" name="bottom"/>
  <outline>
    <contour>
      <point x="57.5" y="0" type="line"/>
      <point x="222.5" y="0" type="line" name="ab01"/>
      <point x="222.5" y="439" type="line" name="iv01"/>
      <point x="518.5" y="0" type="line" name="ab02"/>
      <point x="675.5" y="129.134" type="line"/>
      <point x="676" y="700" type="line" name="at01"/>
      <point x="509.5" y="700" type="line"/>
      <point x="509.5" y="261" type="line" name="iv02"/>
      <point x="213.5" y="700" type="line" name="at02"/>
      <point x="57.5" y="700" type="line"/>
    </contour>
    <contour>
      <point x="257.25" y="-184" type="line"/>
      <point x="304.138" y="-210"/>
      <point x="359.006" y="-227"/>
      <point x="447.793" y="-227" type="curve" smooth="yes"/>
      <point x="600.427" y="-227"/>
      <point x="676.432" y="-145"/>
      <point x="676.25" y="25" type="curve" smooth="yes"/>
      <point x="675.75" y="493" type="line"/>
      <point x="509.75" y="493" type="line"/>
      <point x="509.75" y="32" type="line" smooth="yes"/>
      <point x="509.75" y="-64"/>
      <point x="488.706" y="-97"/>
      <point x="424.571" y="-97" type="curve" smooth="yes"/>
      <point x="370.458" y="-97"/>
      <point x="327.368" y="-88"/>
      <point x="271.25" y="-67" type="curve"/>
    </contour>
  </outline>
</glyph>
<glyph name="G.ss15" format="2">
  <advance width="747"/>
  <anchor x="383" y="-19" name="bottom"/>
  <anchor x="383" y="719" name="top"/>
  <outline>
    <contour>
      <point x="372" y="264" type="line" name="dv05"/>
      <point x="562" y="264" type="line" name="sv02"/>
      <point x="562" y="309" type="line"/>
      <point x="562" y="175"/>
      <point x="511" y="111"/>
      <point x="397" y="111" type="curve" smooth="yes" name="dv04"/>
      <point x="266" y="111"/>
      <point x="193" y="195"/>
      <point x="193" y="348" type="curve" smooth="yes" name="dv07"/>
      <point x="193" y="508"/>
      <point x="253" y="590"/>
      <point x="387" y="590" type="curve" smooth="yes"/>
      <point x="475" y="590"/>
      <point x="572" y="555"/>
      <point x="654" y="473" type="curve"/>
      <point x="666" y="587" type="line"/>
      <point x="589" y="677"/>
      <point x="492" y="720"/>
      <point x="375" y="720" type="curve" smooth="yes"/>
      <point x="160" y="720"/>
      <point x="28" y="578"/>
      <point x="28" y="348" type="curve" smooth="yes" name="dv08"/>
      <point x="28" y="118"/>
      <point x="173" y="-19"/>
      <point x="383" y="-19" type="curve" smooth="yes" name="dv03"/>
      <point x="593" y="-19"/>
      <point x="719" y="119"/>
      <point x="719" y="321" type="curve" smooth="yes" name="sv03"/>
      <point x="719" y="394" type="line" name="sv01"/>
      <point x="372" y="394" type="line" name="dv06"/>
    </contour>
  </outline>
</glyph>
<glyph name="Germandbls.ss09" format="2">
  <advance width="703"/>
  <outline>
    <contour>
      <point x="50" y="0" type="line"/>
      <point x="216" y="0" type="line"/>
      <point x="216" y="465.546" type="line" smooth="yes"/>
      <point x="216" y="542.334"/>
      <point x="262.609" y="589"/>
      <point x="332.722" y="589" type="curve" smooth="yes"/>
      <point x="366.945" y="589"/>
      <point x="387.581" y="582.214"/>
      <point x="419.375" y="564.25" type="curve"/>
      <point x="451.498" y="624.633" type="line"/>
      <point x="386" y="553" type="line" smooth="yes"/>
      <point x="329.494" y="491.201"/>
      <point x="311.596" y="450.172"/>
      <point x="311.596" y="411.341" type="curve" smooth="yes"/>
      <point x="311.596" y="218"/>
      <point x="513" y="278.42"/>
      <point x="513" y="160" type="curve" smooth="yes"/>
      <point x="513" y="139.474"/>
      <point x="504.176" y="111"/>
      <point x="459.969" y="111" type="curve" smooth="yes"/>
      <point x="432.463" y="111"/>
      <point x="410.991" y="119.211"/>
      <point x="410" y="160" type="curve"/>
      <point x="248" y="160" type="line"/>
      <point x="264" y="31.302"/>
      <point x="324" y="-20"/>
      <point x="464" y="-20" type="curve" smooth="yes"/>
      <point x="600.611" y="-20"/>
      <point x="679" y="52.436"/>
      <point x="679" y="174" type="curve" smooth="yes"/>
      <point x="679" y="363.096"/>
      <point x="478" y="336.135"/>
      <point x="478" y="425.416" type="curve" smooth="yes"/>
      <point x="478" y="451"/>
      <point x="494.997" y="476.867"/>
      <point x="515" y="499" type="curve" smooth="yes"/>
      <point x="668.468" y="668.81" type="line"/>
      <point x="631.494" y="622.095" type="line"/>
      <point x="564.237" y="683.346"/>
      <point x="449.536" y="720"/>
      <point x="339.917" y="720" type="curve" smooth="yes"/>
      <point x="155.146" y="720"/>
      <point x="50" y="624"/>
      <point x="50" y="489" type="curve" smooth="yes"/>
    </contour>
  </outline>
</glyph>
<glyph name="Germandbls.ss12" format="2">
  <advance width="693"/>
  <outline>
    <contour>
      <point x="649.351" y="623.193" type="line"/>
      <point x="590.881" y="665.81"/>
      <point x="473.532" y="720"/>
      <point x="342.391" y="720" type="curve" smooth="yes"/>
      <point x="147.464" y="720"/>
      <point x="50" y="612"/>
      <point x="50" y="489" type="curve" smooth="yes"/>
      <point x="50" y="0" type="line"/>
      <point x="216" y="0" type="line"/>
      <point x="216" y="441" type="line" smooth="yes"/>
      <point x="216" y="540"/>
      <point x="262.927" y="590"/>
      <point x="350.525" y="590" type="curve" smooth="yes"/>
      <point x="380.853" y="590"/>
      <point x="406.588" y="584.126"/>
      <point x="435.152" y="559.922" type="curve"/>
      <point x="475.818" y="642.391" type="line"/>
      <point x="399" y="549" type="line" smooth="yes"/>
      <point x="354.97" y="495.471"/>
      <point x="319" y="458"/>
      <point x="319" y="391.652" type="curve" smooth="yes"/>
      <point x="319" y="242"/>
      <point x="502" y="236.891"/>
      <point x="502" y="150.996" type="curve" smooth="yes"/>
      <point x="502" y="129"/>
      <point x="490" y="113"/>
      <point x="451" y="113" type="curve" smooth="yes"/>
      <point x="405" y="113"/>
      <point x="347.046" y="127.316"/>
      <point x="280.046" y="199.316" type="curve"/>
      <point x="263.046" y="78.316" type="line"/>
      <point x="314.046" y="3.316"/>
      <point x="387" y="-20"/>
      <point x="482" y="-20" type="curve" smooth="yes"/>
      <point x="601.418" y="-20"/>
      <point x="668" y="38.058"/>
      <point x="668" y="146.884" type="curve" smooth="yes"/>
      <point x="668" y="327.795"/>
      <point x="484" y="307"/>
      <point x="484" y="412.278" type="curve" smooth="yes"/>
      <point x="484" y="443"/>
      <point x="499.669" y="462.487"/>
      <point x="524" y="491" type="curve" smooth="yes"/>
      <point x="673.992" y="666.772" type="line"/>
    </contour>
  </outline>
</glyph>
<glyph name="IJ.liga.ss09" format="2">
  <advance width="622"/>
  <outline>
    <contour>
      <point x="80" y="195" type="line"/>
      <point x="104.413" y="55"/>
      <point x="174.723" y="-20"/>
      <point x="314.367" y="-20" type="curve" smooth="yes"/>
      <point x="483.307" y="-20"/>
      <point x="558.5" y="75"/>
      <point x="558.5" y="252" type="curve" smooth="yes"/>
      <point x="558.5" y="700" type="line"/>
      <point x="393.5" y="700" type="line"/>
      <point x="393.5" y="249" type="line" smooth="yes"/>
      <point x="393.5" y="147"/>
      <point x="373.483" y="111"/>
      <point x="319.801" y="111" type="curve" smooth="yes"/>
      <point x="274.308" y="111"/>
      <point x="252.471" y="136"/>
      <point x="245" y="195" type="curve"/>
    </contour>
    <contour>
      <point x="80" y="250" type="line" name="ab01"/>
      <point x="245" y="250" type="line"/>
      <point x="245" y="700" type="line"/>
      <point x="80" y="700" type="line" name="av01"/>
    </contour>
  </outline>
</glyph>
<glyph name="M.ss01" format="2">
  <advance width="850"/>
  <anchor x="425" y="719" name="top"/>
  <anchor x="425" y="-20" name="bottom"/>
  <outline>
    <contour>
      <point x="57" y="0" type="line" name="ab01"/>
      <point x="222" y="0" type="line"/>
      <point x="222" y="427" type="line" name="iv02"/>
      <point x="403" y="137" type="line"/>
      <point x="447" y="137" type="line"/>
      <point x="628" y="427" type="line" name="iv03"/>
      <point x="628" y="0" type="line" name="ab02"/>
      <point x="793" y="0" type="line"/>
      <point x="793" y="700" type="line" name="at02"/>
      <point x="638" y="700" type="line"/>
      <point x="425" y="359" type="line" name="iv01"/>
      <point x="212" y="700" type="line" name="at01"/>
      <point x="57" y="700" type="line"/>
    </contour>
  </outline>
</glyph>
<glyph name="S.ss12" format="2">
  <advance width="590"/>
  <anchor x="295" y="-20" name="bottom"/>
  <anchor x="290" y="719" name="top"/>
  <outline>
    <contour>
      <point x="43.853" y="95.316" type="line"/>
      <point x="95.927" y="29.138"/>
      <point x="211.014" y="-20"/>
      <point x="309.738" y="-20" type="curve" smooth="yes"/>
      <point x="453.596" y="-20"/>
      <point x="550.5" y="62"/>
      <point x="550.5" y="184" type="curve" smooth="yes"/>
      <point x="550.5" y="334.966"/>
      <point x="451.608" y="370.827"/>
      <point x="358.362" y="401.536" type="curve" smooth="yes"/>
      <point x="288.545" y="424.529"/>
      <point x="217.5" y="444.633"/>
      <point x="217.5" y="508" type="curve" smooth="yes"/>
      <point x="217.5" y="556"/>
      <point x="236.531" y="589"/>
      <point x="307.647" y="589" type="curve" smooth="yes"/>
      <point x="368.4" y="589"/>
      <point x="441.115" y="558.783"/>
      <point x="520.312" y="500.865" type="curve"/>
      <point x="530.076" y="611.523" type="line"/>
      <point x="478.001" y="677.701"/>
      <point x="380.328" y="719.901"/>
      <point x="281.604" y="719.901" type="curve" smooth="yes"/>
      <point x="148.741" y="719.901"/>
      <point x="52.5" y="642"/>
      <point x="52.5" y="517" type="curve" smooth="yes"/>
      <point x="52.5" y="365.082"/>
      <point x="161.118" y="327.326"/>
      <point x="254.286" y="294.941" type="curve" smooth="yes"/>
      <point x="324.249" y="270.622"/>
      <point x="385.5" y="249.332"/>
      <point x="385.5" y="185" type="curve" smooth="yes"/>
      <point x="385.5" y="138"/>
      <point x="369.307" y="111.128"/>
      <point x="293.191" y="111.128" type="curve" smooth="yes"/>
      <point x="232.437" y="111.128"/>
      <point x="132.813" y="148.056"/>
      <point x="53.617" y="205.974" type="curve"/>
    </contour>
  </outline>
</glyph>
<glyph name="Schwa.ss09" format="2">
  <advance width="759"/>
  <anchor x="380" y="719" name="top"/>
  <anchor x="380" y="-20" name="bottom"/>
  <outline>
    <contour>
      <point x="32" y="412" type="line" name="sh04"/>
      <point x="30" y="397"/>
      <point x="28" y="374"/>
      <point x="28" y="360" type="curve" smooth="yes" name="sh01"/>
      <point x="28" y="131"/>
      <point x="168" y="-20"/>
      <point x="380" y="-20" type="curve" smooth="yes" name="dv01"/>
      <point x="583" y="-20"/>
      <point x="731" y="111"/>
      <point x="731" y="350" type="curve" smooth="yes" name="sh03"/>
      <point x="731" y="573"/>
      <point x="598" y="720"/>
      <point x="383" y="720" type="curve" smooth="yes" name="dv04"/>
      <point x="209" y="720"/>
      <point x="78" y="623"/>
      <point x="45" y="485" type="curve"/>
      <point x="213" y="485" type="line"/>
      <point x="235" y="542"/>
      <point x="296" y="589"/>
      <point x="382" y="589" type="curve" smooth="yes" name="dv03"/>
      <point x="499" y="589"/>
      <point x="564" y="505"/>
      <point x="564" y="350" type="curve" smooth="yes"/>
      <point x="564" y="194"/>
      <point x="499" y="111"/>
      <point x="382" y="111" type="curve" smooth="yes" name="dv02"/>
      <point x="284" y="111"/>
      <point x="211" y="168"/>
      <point x="200" y="288" type="curve" name="sh02"/>
      <point x="584" y="288" type="line" name="dv05"/>
      <point x="585" y="412" type="line" name="dv06"/>
    </contour>
  </outline>
</glyph>
<glyph name="Schwa.ss10" format="2">
  <advance width="759"/>
  <anchor x="380" y="719" name="top"/>
  <anchor x="380" y="-20" name="bottom"/>
  <outline>
    <contour>
      <point x="584" y="288" type="line" name="dv05"/>
      <point x="585" y="412" type="line" name="dv06"/>
      <point x="32" y="412" type="line" name="sh04"/>
      <point x="30" y="397"/>
      <point x="28" y="374"/>
      <point x="28" y="360" type="curve" smooth="yes" name="sh01"/>
      <point x="28" y="131"/>
      <point x="168" y="-20"/>
      <point x="380" y="-20" type="curve" smooth="yes" name="dv01"/>
      <point x="583" y="-20"/>
      <point x="731" y="119"/>
      <point x="731" y="358" type="curve" smooth="yes" name="sh03"/>
      <point x="731" y="581"/>
      <point x="591" y="720"/>
      <point x="376" y="720" type="curve" smooth="yes"/>
      <point x="245" y="720"/>
      <point x="142" y="666"/>
      <point x="77" y="583" type="curve"/>
      <point x="119.205" y="433.876" type="line"/>
      <point x="191.205" y="553.876"/>
      <point x="257" y="589"/>
      <point x="360" y="589" type="curve" smooth="yes"/>
      <point x="479" y="589"/>
      <point x="564" y="509"/>
      <point x="564" y="354" type="curve" smooth="yes"/>
      <point x="564" y="198"/>
      <point x="499" y="111"/>
      <point x="382" y="111" type="curve" smooth="yes" name="dv02"/>
      <point x="284" y="111"/>
      <point x="211" y="168"/>
      <point x="200" y="288" type="curve" name="sh02"/>
    </contour>
  </outline>
</glyph>
<glyph name="Schwa.ss12" format="2">
  <advance width="759"/>
  <anchor x="380" y="719" name="top"/>
  <anchor x="380" y="-20" name="bottom"/>
  <outline>
    <contour>
      <point x="32" y="412" type="line" name="sh04"/>
      <point x="30" y="397"/>
      <point x="28" y="374"/>
      <point x="28" y="360" type="curve" smooth="yes" name="sh01"/>
      <point x="28" y="131"/>
      <point x="168" y="-20"/>
      <point x="380" y="-20" type="curve" smooth="yes" name="dv01"/>
      <point x="583" y="-20"/>
      <point x="731" y="111"/>
      <point x="731" y="350" type="curve" smooth="yes" name="sh03"/>
      <point x="731" y="573"/>
      <point x="601" y="720"/>
      <point x="376" y="720" type="curve" smooth="yes"/>
      <point x="253" y="720"/>
      <point x="170" y="677"/>
      <point x="88" y="587" type="curve"/>
      <point x="100" y="473" type="line"/>
      <point x="187" y="554"/>
      <point x="260" y="589"/>
      <point x="360" y="589" type="curve" smooth="yes"/>
      <point x="494" y="589"/>
      <point x="564" y="509"/>
      <point x="564" y="354" type="curve" smooth="yes"/>
      <point x="564" y="198"/>
      <point x="499" y="111"/>
      <point x="382" y="111" type="curve" smooth="yes" name="dv02"/>
      <point x="284" y="111"/>
      <point x="211" y="168"/>
      <point x="200" y="288" type="curve" name="sh02"/>
      <point x="584" y="288" type="line" name="dv05"/>
      <point x="585" y="412" type="line" name="dv06"/>
    </contour>
  </outline>
</glyph>
<glyph name="a.ss10" format="2">
  <advance width="558"/>
  <anchor x="274" y="520" name="top"/>
  <anchor x="274" y="-20" name="bottom"/>
  <anchor x="486" y="-3" name="ogonek"/>
  <outline>
    <contour>
      <point x="493" y="-10" type="line"/>
      <point x="493" y="352" type="line" smooth="yes"/>
      <point x="493" y="444"/>
      <point x="426.826" y="520"/>
      <point x="275.572" y="520" type="curve" smooth="yes"/>
      <point x="170.534" y="520"/>
      <point x="76" y="483"/>
      <point x="33" y="426" type="curve"/>
      <point x="72" y="297" type="line"/>
      <point x="123" y="366"/>
      <point x="183.978" y="396"/>
      <point x="252.717" y="396" type="curve" smooth="yes"/>
      <point x="304.826" y="396"/>
      <point x="327" y="378.694"/>
      <point x="327" y="347.135" type="curve" smooth="yes"/>
      <point x="327" y="307.432"/>
      <point x="294" y="283"/>
      <point x="216" y="283" type="curve" smooth="yes"/>
      <point x="99" y="283"/>
      <point x="25" y="229.354"/>
      <point x="25" y="135.97" type="curve" smooth="yes"/>
      <point x="25" y="43.58"/>
      <point x="98" y="-20"/>
      <point x="188" y="-20" type="curve" smooth="yes"/>
      <point x="280" y="-20"/>
      <point x="330" y="47"/>
      <point x="346" y="127" type="curve"/>
      <point x="328" y="208" type="line"/>
      <point x="328" y="157.283"/>
      <point x="288" y="96"/>
      <point x="234" y="96" type="curve" smooth="yes"/>
      <point x="209" y="96"/>
      <point x="190" y="110.028"/>
      <point x="190" y="135.746" type="curve" smooth="yes"/>
      <point x="190" y="161.465"/>
      <point x="209" y="179"/>
      <point x="244" y="179" type="curve" smooth="yes"/>
      <point x="281" y="179"/>
      <point x="314" y="196"/>
      <point x="328" y="220" type="curve"/>
      <point x="328" y="77" type="line"/>
    </contour>
  </outline>
</glyph>
<glyph name="alpha.ss01" format="2">
  <advance width="629"/>
  <anchor x="271" y="519" name="topgr"/>
  <outline>
    <contour>
      <point x="608" y="120" type="line"/>
      <point x="571" y="120"/>
      <point x="552" y="135.079"/>
      <point x="552" y="197.407" type="curve" smooth="yes"/>
      <point x="552" y="500" type="line"/>
      <point x="387" y="500" type="line"/>
      <point x="387" y="153" type="line" smooth="yes"/>
      <point x="387" y="47"/>
      <point x="441" y="0"/>
      <point x="560" y="0" type="curve" smooth="yes"/>
      <point x="608" y="0" type="line"/>
    </contour>
    <contour>
      <point x="228.768" y="-20" type="curve" smooth="yes"/>
      <point x="359.491" y="-20"/>
      <point x="419" y="109"/>
      <point x="419" y="260" type="curve" smooth="yes"/>
      <point x="419" y="433"/>
      <point x="340.956" y="520"/>
      <point x="224.866" y="520" type="curve" smooth="yes"/>
      <point x="94.142" y="520"/>
      <point x="20" y="411"/>
      <point x="20" y="259" type="curve" smooth="yes"/>
      <point x="20" y="99"/>
      <point x="102.922" y="-20"/>
    </contour>
    <contour>
      <point x="286.024" y="103" type="curve" smooth="yes"/>
      <point x="225.057" y="103"/>
      <point x="186" y="167"/>
      <point x="186" y="255" type="curve" smooth="yes"/>
      <point x="186" y="340"/>
      <point x="223.152" y="397"/>
      <point x="283.166" y="397" type="curve" smooth="yes"/>
      <point x="338.417" y="397"/>
      <point x="387" y="350"/>
      <point x="387" y="253" type="curve" smooth="yes"/>
      <point x="387" y="162"/>
      <point x="345.085" y="103"/>
    </contour>
  </outline>
</glyph>
<glyph name="b.ss11" format="2">
  <advance width="591"/>
  <anchor x="317" y="-20" name="bottom"/>
  <anchor x="302" y="750" name="top"/>
  <outline>
    <contour>
      <point x="45.5" y="-10" type="line"/>
      <point x="210.5" y="85" type="line"/>
      <point x="210.5" y="700" type="line"/>
      <point x="45.5" y="700" type="line"/>
    </contour>
    <contour>
      <point x="365.612" y="-20" type="curve" smooth="yes" name="dv02"/>
      <point x="494.597" y="-20"/>
      <point x="570.5" y="99"/>
      <point x="570.5" y="255" type="curve" smooth="yes" name="sh02"/>
      <point x="570.5" y="411"/>
      <point x="495.595" y="520"/>
      <point x="366.665" y="520" type="curve" smooth="yes" name="sv01"/>
      <point x="238.922" y="520"/>
      <point x="178" y="413"/>
      <point x="178" y="255" type="curve" smooth="yes" name="ah01"/>
      <point x="178" y="93"/>
      <point x="239.921" y="-20"/>
    </contour>
    <contour>
      <point x="316.5" y="100" type="curve" smooth="yes" name="dv01"/>
      <point x="246.5" y="100"/>
      <point x="210.5" y="167.224"/>
      <point x="210.5" y="256.522" type="curve" smooth="yes" name="sh03"/>
      <point x="210.5" y="343.813"/>
      <point x="256.5" y="400"/>
      <point x="308.5" y="400" type="curve" smooth="yes" name="at01"/>
      <point x="370.5" y="400"/>
      <point x="405.5" y="347.826"/>
      <point x="405.5" y="255.518" type="curve" smooth="yes"/>
      <point x="405.5" y="158.194"/>
      <point x="371.5" y="100"/>
    </contour>
  </outline>
</glyph>
<glyph name="bracketright.case" format="2">
  <advance width="418"/>
  <outline>
    <contour>
      <point x="35" y="-157" type="line"/>
      <point x="351" y="-157" type="line"/>
      <point x="351" y="838" type="line"/>
      <point x="35" y="838" type="line"/>
      <point x="35" y="738" type="line"/>
      <point x="199" y="738" type="line"/>
      <point x="199" y="-57" type="line"/>
      <point x="35" y="-57" type="line"/>
    </contour>
  </outline>
</glyph>
<glyph name="c.ss12" format="2">
  <advance width="532"/>
  <anchor x="291" y="520" name="top"/>
  <anchor x="291" y="-20" name="bottom"/>
  <outline>
    <contour>
      <point x="499" y="190" type="line"/>
      <point x="446.506" y="131"/>
      <point x="385.797" y="104"/>
      <point x="326.066" y="104" type="curve" smooth="yes"/>
      <point x="262.419" y="104"/>
      <point x="188" y="158"/>
      <point x="188" y="254" type="curve" smooth="yes"/>
      <point x="188" y="353"/>
      <point x="261.398" y="397"/>
      <point x="325.009" y="397" type="curve" smooth="yes"/>
      <point x="382.749" y="397"/>
      <point x="433.638" y="375"/>
      <point x="500" y="322" type="curve"/>
      <point x="509" y="425" type="line"/>
      <point x="458.313" y="486"/>
      <point x="381.319" y="520"/>
      <point x="295.441" y="520" type="curve" smooth="yes"/>
      <point x="117.762" y="520"/>
      <point x="23" y="401"/>
      <point x="23" y="255" type="curve" smooth="yes"/>
      <point x="23" y="100"/>
      <point x="117.762" y="-20"/>
      <point x="294.454" y="-20" type="curve" smooth="yes"/>
      <point x="390.204" y="-20"/>
      <point x="459.301" y="29"/>
      <point x="508" y="88" type="curve"/>
    </contour>
  </outline>
</glyph>
<glyph name="ccedilla.ss12" format="2">
  <advance width="532"/>
  <anchor x="291" y="520" name="top"/>
  <anchor x="271" y="-218" name="bottom"/>
  <outline>
    <contour>
      <point x="499" y="190" type="line"/>
      <point x="446.506" y="131"/>
      <point x="385.797" y="104"/>
      <point x="326.066" y="104" type="curve" smooth="yes"/>
      <point x="262.419" y="104"/>
      <point x="188" y="158"/>
      <point x="188" y="254" type="curve" smooth="yes"/>
      <point x="188" y="353"/>
      <point x="261.398" y="397"/>
      <point x="325.009" y="397" type="curve" smooth="yes"/>
      <point x="382.749" y="397"/>
      <point x="433.638" y="375"/>
      <point x="500" y="322" type="curve"/>
      <point x="509" y="425" type="line"/>
      <point x="458.313" y="486"/>
      <point x="381.319" y="520"/>
      <point x="295.441" y="520" type="curve" smooth="yes"/>
      <point x="117.762" y="520"/>
      <point x="23" y="401"/>
      <point x="23" y="255" type="curve" smooth="yes"/>
      <point x="23" y="100"/>
      <point x="117.762" y="-20"/>
      <point x="294.454" y="-20" type="curve" smooth="yes"/>
      <point x="390.204" y="-20"/>
      <point x="459.301" y="29"/>
      <point x="508" y="88" type="curve"/>
    </contour>
    <contour>
      <point x="144" y="-205" type="line"/>
      <point x="166" y="-211"/>
      <point x="199" y="-218"/>
      <point x="246" y="-218" type="curve" smooth="yes"/>
      <point x="343" y="-218"/>
      <point x="395" y="-192"/>
      <point x="395" y="-133" type="curve" smooth="yes"/>
      <point x="395" y="-87"/>
      <point x="364" y="-64"/>
      <point x="294" y="-64" type="curve"/>
      <point x="341.224" y="19" type="line"/>
      <point x="248.224" y="19" type="line"/>
      <point x="183" y="-104" type="line"/>
      <point x="198" y="-102"/>
      <point x="216" y="-100"/>
      <point x="230" y="-100" type="curve" smooth="yes"/>
      <point x="263" y="-100"/>
      <point x="282" y="-111"/>
      <point x="282" y="-134" type="curve" smooth="yes"/>
      <point x="282" y="-155"/>
      <point x="266" y="-168"/>
      <point x="237" y="-168" type="curve" smooth="yes"/>
      <point x="219" y="-168"/>
      <point x="184" y="-163"/>
      <point x="164" y="-157" type="curve"/>
    </contour>
  </outline>
</glyph>
<glyph name="dcroat.ss02" format="2">
  <advance width="625"/>
  <outline>
    <contour>
      <point x="215.455" y="631" type="line"/>
      <point x="626.447" y="631" type="line"/>
      <point x="626.447" y="665" type="line"/>
      <point x="215.455" y="665" type="line"/>
    </contour>
    <contour>
      <point x="387" y="140" type="line" name="ab03"/>
      <point x="552" y="140" type="line"/>
      <point x="552" y="750" type="line" name="ab01"/>
      <point x="387" y="750" type="line"/>
    </contour>
    <contour>
      <point x="239" y="-20" type="curve" smooth="yes" name="dv01"/>
      <point x="348" y="-20"/>
      <point x="419" y="90"/>
      <point x="419" y="255" type="curve" smooth="yes"/>
      <point x="419" y="421"/>
      <point x="350" y="520"/>
      <point x="233" y="520" type="curve" smooth="yes" name="at01"/>
      <point x="94" y="520"/>
      <point x="20" y="411"/>
      <point x="20" y="255" type="curve" smooth="yes"/>
      <point x="20" y="99"/>
      <point x="103" y="-20"/>
    </contour>
    <contour>
      <point x="289.517" y="106" type="curve" smooth="yes" name="dv02"/>
      <point x="226.204" y="106"/>
      <point x="185" y="165"/>
      <point x="185" y="256" type="curve" smooth="yes"/>
      <point x="185" y="344"/>
      <point x="223.189" y="393"/>
      <point x="290.522" y="393" type="curve" smooth="yes" name="sv01"/>
      <point x="347.806" y="393"/>
      <point x="387" y="337"/>
      <point x="387" y="257" type="curve" smooth="yes"/>
      <point x="387" y="166"/>
      <point x="348.811" y="106"/>
    </contour>
    <contour>
      <point x="600" y="117" type="line"/>
      <point x="588.872" y="111.385"/>
      <point x="573.014" y="107"/>
      <point x="564.963" y="107" type="curve" smooth="yes" name="dv02"/>
      <point x="555.783" y="107"/>
      <point x="552" y="127"/>
      <point x="552" y="193" type="curve" smooth="yes"/>
      <point x="552" y="342" type="line" name="ab01"/>
      <point x="387" y="312" type="line"/>
      <point x="387" y="132" type="line" smooth="yes"/>
      <point x="387" y="33"/>
      <point x="429.356" y="-20"/>
      <point x="519.881" y="-20" type="curve" smooth="yes" name="dv01"/>
      <point x="552.271" y="-20"/>
      <point x="583" y="-11"/>
      <point x="630" y="5" type="curve"/>
    </contour>
  </outline>
</glyph>
<glyph name="decyr.ss08" format="2">
  <advance width="741"/>
  <outline>
    <contour>
      <point x="108" y="86" type="line"/>
      <point x="284" y="86" type="line"/>
      <point x="369" y="337" type="line"/>
      <point x="454" y="86" type="line"/>
      <point x="632" y="86" type="line"/>
      <point x="463" y="500" type="line"/>
      <point x="277" y="500" type="line"/>
    </contour>
    <contour>
      <point x="132" y="-140" type="line"/>
      <point x="133" y="-107"/>
      <point x="118" y="0"/>
      <point x="178" y="0" type="curve" smooth="yes"/>
      <point x="558" y="0" type="line" smooth="yes"/>
      <point x="625" y="0"/>
      <point x="610" y="-102"/>
      <point x="610" y="-140" type="curve"/>
      <point x="726" y="-140" type="line"/>
      <point x="726" y="65"/>
      <point x="705" y="119"/>
      <point x="608" y="119" type="curve" smooth="yes"/>
      <point x="133" y="119" type="line" smooth="yes"/>
      <point x="36" y="119"/>
      <point x="15" y="65"/>
      <point x="15" y="-140" type="curve"/>
    </contour>
  </outline>
</glyph>
<glyph name="e.ss09" format="2">
  <advance width="587"/>
  <anchor x="290" y="520" name="top"/>
  <anchor x="290" y="-20" name="bottom"/>
  <anchor x="407" y="-3" name="ogonek"/>
  <outline>
    <contour>
      <point x="187" y="322" type="line"/>
      <point x="187" y="371"/>
      <point x="238" y="400"/>
      <point x="298" y="400" type="curve" smooth="yes"/>
      <point x="358" y="400"/>
      <point x="403" y="371"/>
      <point x="403" y="322" type="curve"/>
    </contour>
    <contour>
      <point x="560" y="228" type="line"/>
      <point x="562" y="406"/>
      <point x="469" y="520"/>
      <point x="298" y="520" type="curve" smooth="yes"/>
      <point x="127" y="520"/>
      <point x="20" y="401"/>
      <point x="20" y="255" type="curve" smooth="yes"/>
      <point x="20" y="99"/>
      <point x="129" y="-20"/>
      <point x="297" y="-20" type="curve" smooth="yes"/>
      <point x="437" y="-20"/>
      <point x="533" y="51"/>
      <point x="553" y="167" type="curve"/>
      <point x="391" y="167" type="line"/>
      <point x="386" y="124"/>
      <point x="352" y="100"/>
      <point x="296" y="100" type="curve" smooth="yes"/>
      <point x="224" y="100"/>
      <point x="187" y="137.291"/>
      <point x="187" y="228" type="curve"/>
    </contour>
  </outline>
</glyph>
<glyph name="e.ss10" format="2">
  <advance width="574"/>
  <anchor x="290" y="520" name="top"/>
  <anchor x="290" y="-20" name="bottom"/>
  <anchor x="419" y="-3" name="ogonek"/>
  <outline>
    <contour>
      <point x="187" y="324" type="line"/>
      <point x="187" y="363.027"/>
      <point x="228" y="400"/>
      <point x="288" y="400" type="curve" smooth="yes"/>
      <point x="345" y="400"/>
      <point x="383" y="362"/>
      <point x="383" y="324" type="curve"/>
    </contour>
    <contour>
      <point x="551" y="228" type="line"/>
      <point x="557" y="417"/>
      <point x="460" y="520"/>
      <point x="289" y="520" type="curve" smooth="yes"/>
      <point x="120" y="520"/>
      <point x="20" y="401"/>
      <point x="20" y="255" type="curve" smooth="yes"/>
      <point x="20" y="99"/>
      <point x="120" y="-20"/>
      <point x="302.331" y="-20" type="curve" smooth="yes"/>
      <point x="404" y="-20"/>
      <point x="494" y="17"/>
      <point x="537" y="73" type="curve"/>
      <point x="498" y="203" type="line"/>
      <point x="454" y="136"/>
      <point x="395" y="104"/>
      <point x="317" y="104" type="curve" smooth="yes"/>
      <point x="242" y="104"/>
      <point x="186" y="157"/>
      <point x="186" y="228" type="curve"/>
    </contour>
  </outline>
</glyph>
<glyph name="f_thorn" format="2">
  <advance width="996"/>
  <outline>
    <contour>
      <point x="99" y="0" type="line" name="ab01"/>
      <point x="264" y="0" type="line"/>
      <point x="264" y="380" type="line" name="sv01"/>
      <point x="390" y="380" type="line"/>
      <point x="390" y="500" type="line" name="sv02"/>
      <point x="264" y="500" type="line"/>
      <point x="264" y="547" type="line" smooth="yes"/>
      <point x="264" y="593"/>
      <point x="280" y="627"/>
      <point x="322" y="627" type="curve" smooth="yes" name="dv01"/>
      <point x="444.28" y="627" type="line"/>
      <point x="444" y="-200" type="line" name="av01"/>
      <point x="609" y="-200" type="line"/>
      <point x="609" y="81.3" type="line"/>
      <point x="640.45" y="17.38"/>
      <point x="691.44" y="-20"/>
      <point x="755" y="-20" type="curve" smooth="yes" name="dv01"/>
      <point x="892" y="-20"/>
      <point x="976" y="99"/>
      <point x="976" y="255" type="curve" smooth="yes"/>
      <point x="976" y="411"/>
      <point x="901" y="520"/>
      <point x="762" y="520" type="curve" smooth="yes" name="at01"/>
      <point x="693.26" y="520"/>
      <point x="640.8" y="486.4"/>
      <point x="609" y="425.53" type="curve"/>
      <point x="608.99" y="750" type="line"/>
      <point x="279" y="749.96" type="line" name="dv02"/>
      <point x="166.41" y="748.67"/>
      <point x="99" y="692.76"/>
      <point x="99" y="588" type="curve" smooth="yes"/>
      <point x="99" y="500" type="line" name="dv04"/>
      <point x="22" y="500" type="line"/>
      <point x="22" y="380" type="line"/>
      <point x="99" y="380" type="line" name="dv03"/>
    </contour>
    <contour>
      <point x="706" y="106" type="curve" smooth="yes" name="dv02"/>
      <point x="647" y="106"/>
      <point x="609" y="166"/>
      <point x="609" y="257" type="curve" smooth="yes"/>
      <point x="609" y="337"/>
      <point x="648" y="393"/>
      <point x="705" y="393" type="curve" smooth="yes" name="sv01"/>
      <point x="773" y="393"/>
      <point x="811" y="341"/>
      <point x="811" y="256" type="curve" smooth="yes"/>
      <point x="811" y="164"/>
      <point x="771" y="106"/>
    </contour>
  </outline>
</glyph>
<glyph name="five.ss10" format="2">
  <advance width="607"/>
  <outline>
    <contour>
      <point x="23" y="117" type="line"/>
      <point x="84" y="36"/>
      <point x="178" y="-20"/>
      <point x="299" y="-20" type="curve" smooth="yes"/>
      <point x="463" y="-20"/>
      <point x="577" y="83"/>
      <point x="577" y="239" type="curve" smooth="yes"/>
      <point x="577" y="381"/>
      <point x="483" y="477"/>
      <point x="350" y="477" type="curve" smooth="yes"/>
      <point x="323" y="477"/>
      <point x="278" y="473"/>
      <point x="250" y="462" type="curve"/>
      <point x="273" y="570" type="line"/>
      <point x="536" y="570" type="line"/>
      <point x="555" y="700" type="line"/>
      <point x="130" y="700" type="line"/>
      <point x="47" y="308" type="line"/>
      <point x="127" y="350"/>
      <point x="205" y="374"/>
      <point x="278" y="374" type="curve" smooth="yes"/>
      <point x="370" y="374"/>
      <point x="411" y="336"/>
      <point x="411" y="250" type="curve" smooth="yes"/>
      <point x="411" y="160"/>
      <point x="366" y="111"/>
      <point x="283" y="111" type="curve" smooth="yes"/>
      <point x="200" y="111"/>
      <point x="138" y="159"/>
      <point x="68" y="275" type="curve"/>
    </contour>
  </outline>
</glyph>
<glyph name="g.ss09" format="2">
  <advance width="558"/>
  <anchor x="273" y="520" name="top"/>
  <anchor x="273" y="-220" name="bottom"/>
  <outline>
    <contour>
      <point x="37" y="318" type="curve" smooth="yes"/>
      <point x="37" y="220"/>
      <point x="111.941" y="124"/>
      <point x="273.975" y="124" type="curve" smooth="yes" name="dv05"/>
      <point x="439.047" y="124"/>
      <point x="515" y="224"/>
      <point x="515" y="321" type="curve" smooth="yes" name="sv14"/>
      <point x="515" y="418"/>
      <point x="440.059" y="520"/>
      <point x="277.013" y="520" type="curve" smooth="yes" name="at01"/>
      <point x="110.928" y="520"/>
      <point x="37" y="415"/>
    </contour>
    <contour>
      <point x="278.254" y="244" type="curve" smooth="yes" name="dv06"/>
      <point x="224.169" y="244"/>
      <point x="196" y="275.816"/>
      <point x="196" y="318.921" type="curve" smooth="yes" name="sv09"/>
      <point x="196" y="362.026"/>
      <point x="224.169" y="400"/>
      <point x="278.254" y="400" type="curve" smooth="yes" name="sv01"/>
      <point x="332.338" y="400"/>
      <point x="356" y="363.053"/>
      <point x="356" y="319.947" type="curve" smooth="yes" name="sv13"/>
      <point x="356" y="276.842"/>
      <point x="332.338" y="244"/>
    </contour>
    <contour>
      <point x="24" y="-33" type="line" name="sv12"/>
      <point x="31.083" y="-160"/>
      <point x="129.228" y="-220"/>
      <point x="288.083" y="-220" type="curve" smooth="yes" name="dv01"/>
      <point x="440.866" y="-220"/>
      <point x="538" y="-166.401"/>
      <point x="538" y="-59.204" type="curve" smooth="yes" name="sv08"/>
      <point x="538" y="32.401"/>
      <point x="467.916" y="86"/>
      <point x="275.948" y="86" type="curve" smooth="yes" name="sv05"/>
      <point x="182.503" y="86"/>
      <point x="150" y="100.083"/>
      <point x="150" y="129.333" type="curve" smooth="yes" name="sv06"/>
      <point x="150" y="153.167"/>
      <point x="171" y="177"/>
      <point x="193" y="190" type="curve" name="sv10"/>
      <point x="172" y="247" type="line" name="sv11"/>
      <point x="67" y="214.498"/>
      <point x="20" y="168.208"/>
      <point x="20" y="104.189" type="curve" smooth="yes"/>
      <point x="20" y="19.487"/>
      <point x="104.431" y="-14"/>
      <point x="254.983" y="-14" type="curve" smooth="yes" name="ab01"/>
      <point x="332.293" y="-14"/>
      <point x="374" y="-23.675"/>
      <point x="374" y="-53.775" type="curve" smooth="yes" name="sv07"/>
      <point x="374" y="-78.5"/>
      <point x="347.143" y="-100"/>
      <point x="286.198" y="-100" type="curve" smooth="yes" name="dv02"/>
      <point x="222.154" y="-100"/>
      <point x="191.165" y="-76"/>
      <point x="186" y="-33" type="curve" name="sv04"/>
    </contour>
    <contour>
      <point x="407" y="422" type="line" name="sv03"/>
      <point x="412" y="470"/>
      <point x="433" y="499"/>
      <point x="446" y="510" type="curve" name="at02"/>
      <point x="457" y="478"/>
      <point x="476" y="462"/>
      <point x="509" y="462" type="curve" smooth="yes" name="dv03"/>
      <point x="549" y="462"/>
      <point x="579" y="486"/>
      <point x="579" y="537" type="curve" smooth="yes"/>
      <point x="579" y="586"/>
      <point x="551" y="609"/>
      <point x="511" y="609" type="curve" smooth="yes" name="dv04"/>
      <point x="440" y="609"/>
      <point x="384" y="535"/>
      <point x="374" y="435" type="curve" name="sv02"/>
    </contour>
  </outline>
</glyph>
<glyph name="lslash.ss11" format="2">
  <advance width="272"/>
  <outline>
    <contour>
      <point x="53" y="0" type="line" name="av01"/>
      <point x="218" y="0" type="line"/>
      <point x="218" y="700" type="line" name="av02"/>
      <point x="53" y="700" type="line"/>
    </contour>
    <contour>
      <point x="3" y="226" type="line"/>
      <point x="269" y="408" type="line"/>
      <point x="269" y="514" type="line"/>
      <point x="3" y="332" type="line"/>
    </contour>
  </outline>
</glyph>
<glyph name="parenright.case" format="2">
  <advance width="384"/>
  <outline>
    <contour>
      <point x="25" y="-155" type="line"/>
      <point x="220" y="-117"/>
      <point x="341" y="77"/>
      <point x="341" y="351" type="curve" smooth="yes"/>
      <point x="341" y="620"/>
      <point x="224" y="800"/>
      <point x="25" y="837" type="curve"/>
      <point x="25" y="769" type="line"/>
      <point x="114" y="716"/>
      <point x="176" y="566"/>
      <point x="176" y="349" type="curve" smooth="yes"/>
      <point x="176" y="130"/>
      <point x="113" y="-52"/>
      <point x="25" y="-87" type="curve"/>
    </contour>
  </outline>
</glyph>
<glyph name="question.ss10" format="2">
  <advance width="551"/>
  <outline>
    <contour>
      <point x="241" y="-20" type="curve" smooth="yes"/>
      <point x="293" y="-20"/>
      <point x="332" y="21"/>
      <point x="332" y="69" type="curve" smooth="yes"/>
      <point x="332" y="121"/>
      <point x="293" y="160"/>
      <point x="241" y="160" type="curve" smooth="yes"/>
      <point x="190" y="160"/>
      <point x="152" y="121"/>
      <point x="152" y="69" type="curve" smooth="yes"/>
      <point x="152" y="21"/>
      <point x="190" y="-20"/>
    </contour>
    <contour>
      <point x="158" y="250" type="line"/>
      <point x="324" y="250" type="line"/>
      <point x="324" y="332" type="line"/>
      <point x="448" y="388"/>
      <point x="521" y="475"/>
      <point x="521" y="567" type="curve" smooth="yes"/>
      <point x="521" y="690"/>
      <point x="439" y="767"/>
      <point x="287" y="767" type="curve" smooth="yes"/>
      <point x="164" y="767"/>
      <point x="79" y="711"/>
      <point x="25" y="630" type="curve"/>
      <point x="70" y="471" type="line"/>
      <point x="140" y="588"/>
      <point x="191" y="636"/>
      <point x="275" y="636" type="curve" smooth="yes"/>
      <point x="335" y="636"/>
      <point x="355" y="612"/>
      <point x="355" y="556" type="curve" smooth="yes"/>
      <point x="355" y="496"/>
      <point x="299" y="440"/>
      <point x="158" y="365" type="curve"/>
    </contour>
  </outline>
</glyph>
<glyph name="r.ss10" format="2">
  <advance width="517"/>
  <anchor x="280" y="520" name="top"/>
  <anchor x="135" y="-20" name="bottom"/>
  <outline>
    <contour>
      <point x="50" y="0" type="line" name="ab02"/>
      <point x="215" y="0" type="line"/>
      <point x="215" y="227" type="line" smooth="yes" name="iv01"/>
      <point x="215" y="311.38"/>
      <point x="250.37" y="386"/>
      <point x="306.78" y="386" type="curve" smooth="yes" name="sv01"/>
      <point x="335.11" y="386"/>
      <point x="351.79" y="371.533"/>
      <point x="349.49" y="321.33" type="curve"/>
      <point x="494.86" y="349.67" type="line"/>
      <point x="502.04" y="474.23"/>
      <point x="430.2" y="520"/>
      <point x="352.33" y="520" type="curve" smooth="yes" name="at01"/>
      <point x="281.33" y="520"/>
      <point x="239.3" y="480.71"/>
      <point x="215" y="431.91" type="curve"/>
      <point x="215" y="500" type="line" name="av01"/>
      <point x="50" y="500" type="line"/>
    </contour>
  </outline>
</glyph>
<glyph name="schwa.ss12" format="2">
  <advance width="552"/>
  <anchor x="271" y="-20" name="bottom"/>
  <anchor x="271" y="520" name="top"/>
  <outline>
    <contour>
      <point x="369" y="190" type="line"/>
      <point x="363.915" y="150"/>
      <point x="341.028" y="100"/>
      <point x="278.607" y="100" type="curve" smooth="yes"/>
      <point x="215.146" y="100"/>
      <point x="189.138" y="150.562"/>
      <point x="183" y="190" type="curve"/>
    </contour>
    <contour>
      <point x="23" y="290" type="line"/>
      <point x="21" y="277.79"/>
      <point x="20" y="265.21"/>
      <point x="20" y="253" type="curve" smooth="yes"/>
      <point x="20" y="90"/>
      <point x="124" y="-20"/>
      <point x="276" y="-20" type="curve" smooth="yes"/>
      <point x="430" y="-20"/>
      <point x="532" y="94"/>
      <point x="532" y="252" type="curve" smooth="yes"/>
      <point x="532" y="397"/>
      <point x="447" y="520"/>
      <point x="265" y="520" type="curve" smooth="yes"/>
      <point x="169" y="520"/>
      <point x="95" y="486"/>
      <point x="48" y="425" type="curve"/>
      <point x="57" y="323" type="line"/>
      <point x="132.654" y="376.387"/>
      <point x="196.75" y="400"/>
      <point x="255.513" y="400" type="curve" smooth="yes"/>
      <point x="340.618" y="400"/>
      <point x="365.599" y="349"/>
      <point x="369" y="290" type="curve"/>
    </contour>
  </outline>
</glyph>
<glyph name="shacyr.loclBGR.ss02" format="2">
  <advance width="920"/>
  <anchor x="453" y="520" name="top"/>
  <anchor x="453" y="-20" name="bottom"/>
  <outline>
    <contour>
      <point x="530" y="500" type="line" name="iv01"/>
      <point x="365" y="500" type="line" name="sv01"/>
      <point x="365" y="196" type="line" smooth="yes"/>
      <point x="365" y="52"/>
      <point x="422" y="-20"/>
      <point x="519" y="-20" type="curve" smooth="yes" name="ab01"/>
      <point x="628" y="-20"/>
      <point x="688" y="72"/>
      <point x="704" y="150" type="curve"/>
      <point x="702" y="222" type="line"/>
      <point x="690" y="283" type="line" name="at01"/>
      <point x="690" y="188"/>
      <point x="659" y="104"/>
      <point x="593" y="104" type="curve" smooth="yes"/>
      <point x="555" y="104"/>
      <point x="530" y="133"/>
      <point x="530" y="228" type="curve" smooth="yes"/>
    </contour>
    <contour>
      <point x="205" y="500" type="line" name="iv01"/>
      <point x="40" y="500" type="line" name="sv01"/>
      <point x="40" y="196" type="line" smooth="yes"/>
      <point x="40" y="52"/>
      <point x="97" y="-20"/>
      <point x="194" y="-20" type="curve" smooth="yes" name="ab01"/>
      <point x="303" y="-20"/>
      <point x="363" y="72"/>
      <point x="379" y="150" type="curve"/>
      <point x="377" y="222" type="line"/>
      <point x="365" y="283" type="line" name="at01"/>
      <point x="365" y="188"/>
      <point x="334" y="104"/>
      <point x="268" y="104" type="curve" smooth="yes"/>
      <point x="230" y="104"/>
      <point x="205" y="133"/>
      <point x="205" y="228" type="curve" smooth="yes"/>
    </contour>
    <contour>
      <point x="903" y="117" type="line"/>
      <point x="891.872" y="111.385"/>
      <point x="876.014" y="107"/>
      <point x="867.963" y="107" type="curve" smooth="yes" name="dv02"/>
      <point x="858.783" y="107"/>
      <point x="855" y="127"/>
      <point x="855" y="193" type="curve" smooth="yes"/>
      <point x="855" y="500" type="line" name="ab01"/>
      <point x="690" y="500" type="line"/>
      <point x="690" y="132" type="line" smooth="yes"/>
      <point x="690" y="33"/>
      <point x="732.356" y="-20"/>
      <point x="822.881" y="-20" type="curve" smooth="yes" name="dv01"/>
      <point x="855.271" y="-20"/>
      <point x="886" y="-11"/>
      <point x="933" y="5" type="curve"/>
    </contour>
  </outline>
</glyph>
<glyph name="six.osf.ss09" format="2">
  <advance width="650"/>
  <outline>
    <contour>
      <point x="215" y="221" type="curve" smooth="yes"/>
      <point x="215" y="294"/>
      <point x="257" y="334"/>
      <point x="335" y="334" type="curve" smooth="yes"/>
      <point x="410" y="334"/>
      <point x="454" y="293"/>
      <point x="454" y="222" type="curve" smooth="yes"/>
      <point x="454" y="151"/>
      <point x="409" y="110"/>
      <point x="333" y="110" type="curve" smooth="yes"/>
      <point x="256" y="110"/>
      <point x="215" y="148"/>
    </contour>
    <contour>
      <point x="604" y="502" type="line"/>
      <point x="577" y="639"/>
      <point x="492" y="720"/>
      <point x="337" y="720" type="curve" smooth="yes"/>
      <point x="137" y="720"/>
      <point x="38" y="586"/>
      <point x="38" y="360" type="curve" smooth="yes"/>
      <point x="38" y="117"/>
      <point x="153" y="-20"/>
      <point x="346" y="-20" type="curve" smooth="yes"/>
      <point x="510" y="-20"/>
      <point x="620" y="80"/>
      <point x="620" y="230" type="curve" smooth="yes"/>
      <point x="620" y="367"/>
      <point x="527" y="453"/>
      <point x="368" y="453" type="curve" smooth="yes"/>
      <point x="291" y="453"/>
      <point x="220" y="430"/>
      <point x="181" y="391" type="curve"/>
      <point x="181" y="508"/>
      <point x="224" y="589"/>
      <point x="333" y="589" type="curve" smooth="yes"/>
      <point x="393" y="589"/>
      <point x="425" y="562"/>
      <point x="438" y="502" type="curve"/>
    </contour>
  </outline>
</glyph>
<glyph name="softcyr.loclBGR" format="2">
  <advance width="516"/>
  <anchor x="258" y="-20" name="bottom"/>
  <anchor x="258" y="520" name="top"/>
  <outline>
    <contour>
      <point x="94" y="240" type="line"/>
      <point x="253.084" y="240" type="line" smooth="yes"/>
      <point x="313.278" y="240"/>
      <point x="338" y="222.857"/>
      <point x="338" y="170" type="curve" smooth="yes"/>
      <point x="338" y="125.144"/>
      <point x="314.48" y="100"/>
      <point x="272.522" y="100" type="curve" smooth="yes"/>
      <point x="228.146" y="100"/>
      <point x="207.902" y="116.479"/>
      <point x="207.911" y="152.632" type="curve" smooth="yes"/>
      <point x="208" y="500" type="line"/>
      <point x="43" y="500" type="line"/>
      <point x="42.911" y="156.8" type="line" smooth="yes"/>
      <point x="42.881" y="40.909"/>
      <point x="120.696" y="-20"/>
      <point x="268.787" y="-20" type="curve" smooth="yes"/>
      <point x="409.256" y="-20"/>
      <point x="498" y="51.365"/>
      <point x="498" y="170" type="curve" smooth="yes"/>
      <point x="498" y="270"/>
      <point x="436.163" y="360"/>
      <point x="297.031" y="360" type="curve" smooth="yes"/>
      <point x="94" y="360" type="line"/>
    </contour>
  </outline>
</glyph>
<glyph name="tbar.ss11" format="2">
  <advance width="353"/>
  <outline>
    <contour>
      <point x="74" y="0" type="line"/>
      <point x="239" y="0" type="line"/>
      <point x="239" y="380" type="line"/>
      <point x="339" y="380" type="line"/>
      <point x="339" y="500" type="line"/>
      <point x="239" y="500" type="line"/>
      <point x="239" y="620" type="line"/>
      <point x="74" y="620" type="line"/>
      <point x="74" y="500" type="line"/>
      <point x="14" y="500" type="line"/>
      <point x="14" y="380" type="line"/>
      <point x="74" y="380" type="line"/>
    </contour>
    <contour>
      <point x="14.272" y="133.698" type="line"/>
      <point x="334.732" y="133.698" type="line"/>
      <point x="334.732" y="244.538" type="line"/>
      <point x="14.272" y="244.538" type="line"/>
    </contour>
  </outline>
</glyph>
<glyph name="tshecyr.ss11" format="2">
  <advance width="649"/>
  <outline>
    <contour>
      <point x="78" y="0" type="line"/>
      <point x="243" y="0" type="line"/>
      <point x="243" y="700" type="line"/>
      <point x="78" y="700" type="line"/>
    </contour>
    <contour>
      <point x="243" y="197" type="line" name="iv01"/>
      <point x="243" y="292"/>
      <point x="279" y="376"/>
      <point x="356" y="376" type="curve" smooth="yes" name="sv01"/>
      <point x="402" y="376"/>
      <point x="430" y="347"/>
      <point x="430" y="252" type="curve" smooth="yes"/>
      <point x="430" y="0" type="line" name="ab01"/>
      <point x="595" y="0" type="line"/>
      <point x="595" y="284" type="line" smooth="yes"/>
      <point x="595" y="428"/>
      <point x="534" y="500"/>
      <point x="419" y="500" type="curve" smooth="yes" name="at01"/>
      <point x="310" y="500"/>
      <point x="246" y="408"/>
      <point x="229" y="330" type="curve"/>
      <point x="231" y="258" type="line"/>
    </contour>
    <contour>
      <point x="8" y="580" type="line"/>
      <point x="425" y="580" type="line"/>
      <point x="425" y="616" type="line"/>
      <point x="8" y="616" type="line"/>
    </contour>
  </outline>
</glyph>
<glyph name="u.ss05" format="2">
  <advance width="580"/>
  <anchor x="290" y="-20" name="bottom"/>
  <anchor x="290" y="520" name="top"/>
  <anchor x="529" y="-3" name="ogonek"/>
  <outline>
    <contour>
      <point x="386" y="213" type="line"/>
      <point x="370" y="283" type="line"/>
      <point x="370" y="156.619"/>
      <point x="341" y="100"/>
      <point x="277" y="100" type="curve" smooth="yes"/>
      <point x="228" y="100"/>
      <point x="211" y="132.161"/>
      <point x="211" y="225.628" type="curve" smooth="yes"/>
      <point x="211" y="500" type="line"/>
      <point x="46" y="500" type="line"/>
      <point x="46" y="196" type="line" smooth="yes"/>
      <point x="46" y="53"/>
      <point x="108" y="-20"/>
      <point x="217" y="-20" type="curve" smooth="yes"/>
      <point x="308" y="-20"/>
      <point x="361" y="30"/>
      <point x="388" y="130" type="curve"/>
    </contour>
    <contour>
      <point x="370" y="0" type="line" name="ab01"/>
      <point x="535" y="0" type="line"/>
      <point x="535" y="500" type="line"/>
      <point x="370" y="500" type="line" name="av01"/>
    </contour>
  </outline>
</glyph>
<glyph name="zero.osf" format="2">
  <advance width="616"/>
  <outline>
    <contour>
      <point x="308" y="-20" type="curve" smooth="yes" name="dv01"/>
      <point x="473" y="-20"/>
      <point x="577" y="89.815"/>
      <point x="577" y="281.991" type="curve" smooth="yes"/>
      <point x="577" y="475.265"/>
      <point x="469" y="573"/>
      <point x="308" y="573" type="curve" smooth="yes" name="at01"/>
      <point x="155" y="573"/>
      <point x="39" y="473.069"/>
      <point x="39" y="281.991" type="curve" smooth="yes"/>
      <point x="39" y="99.698"/>
      <point x="147" y="-20"/>
    </contour>
    <contour>
      <point x="306" y="111" type="curve" smooth="yes" name="dv02"/>
      <point x="240" y="111"/>
      <point x="204" y="169.744"/>
      <point x="204" y="281.584" type="curve" smooth="yes"/>
      <point x="204" y="388.904"/>
      <point x="238" y="442"/>
      <point x="306" y="442" type="curve" smooth="yes" name="sv01"/>
      <point x="376" y="442"/>
      <point x="412" y="386.645"/>
      <point x="412" y="279.324" type="curve" smooth="yes"/>
      <point x="412" y="170.874"/>
      <point x="375" y="111"/>
    </contour>
  </outline>
</glyph>
